<svg width="1028" height="98" viewBox="0 0 1028 98" fill="none" xmlns="http://www.w3.org/2000/svg">
<path d="M809.999 3.19669L825 3.19688L806 94.1973L791 94.1973L809.999 3.19669Z" fill="#4B5B93"/>
<path d="M788.999 3.19669L804 3.19688L785 94.1973L770 94.1973L788.999 3.19669Z" fill="#E01B22"/>
<rect y="3.19727" width="791" height="15" fill="#E01B22"/>
<path d="M830 3.19767L845.001 3.19786L826.001 94.1982L811.001 94.1982L830 3.19767Z" fill="#1E3278"/>
<rect x="835" y="3.19727" width="193" height="15" fill="#1E3278"/>
<path d="M858.453 56.1973L855.328 44.1973H859.164L860.781 51.8848H860.883L862.617 44.1973H866.359L868.141 51.8301H868.242L869.813 44.1973H873.648L870.516 56.1973H866.43L864.555 49.2051H864.422L862.547 56.1973H858.453ZM877.424 56.1973L874.299 44.1973H878.135L879.752 51.8848H879.854L881.588 44.1973H885.33L887.111 51.8301H887.213L888.783 44.1973H892.619L889.486 56.1973H885.4L883.525 49.2051H883.393L881.518 56.1973H877.424ZM896.395 56.1973L893.27 44.1973H897.105L898.723 51.8848H898.824L900.559 44.1973H904.301L906.082 51.8301H906.184L907.754 44.1973H911.59L908.457 56.1973H904.371L902.496 49.2051H902.363L900.488 56.1973H896.395ZM913.639 56.4238C913.076 56.4238 912.594 56.2259 912.193 55.8301C911.798 55.4342 911.602 54.9551 911.607 54.3926C911.602 53.8405 911.798 53.3691 912.193 52.9785C912.594 52.5827 913.076 52.3848 913.639 52.3848C914.17 52.3848 914.639 52.5827 915.045 52.9785C915.456 53.3691 915.665 53.8405 915.67 54.3926C915.665 54.7676 915.566 55.1087 915.373 55.416C915.186 55.7233 914.938 55.9681 914.631 56.1504C914.329 56.3327 913.998 56.4238 913.639 56.4238ZM918.193 44.1973H922.014V56.6973C922.014 57.6868 921.811 58.4733 921.404 59.0566C921.003 59.64 920.436 60.0592 919.701 60.3145C918.967 60.5697 918.1 60.6973 917.1 60.6973C916.964 60.6973 916.837 60.6947 916.717 60.6895C916.597 60.6842 916.467 60.679 916.326 60.6738V57.7754C916.42 57.7858 916.503 57.7936 916.576 57.7988C916.649 57.804 916.722 57.8066 916.795 57.8066C917.321 57.8066 917.686 57.7077 917.889 57.5098C918.092 57.3171 918.193 57.0202 918.193 56.6191V44.1973ZM920.1 42.7988C919.563 42.7988 919.102 42.6217 918.717 42.2676C918.331 41.9082 918.139 41.4759 918.139 40.9707C918.139 40.4707 918.331 40.0436 918.717 39.6895C919.102 39.3301 919.563 39.1504 920.1 39.1504C920.641 39.1504 921.102 39.3301 921.482 39.6895C921.868 40.0436 922.061 40.4707 922.061 40.9707C922.061 41.4759 921.868 41.9082 921.482 42.2676C921.102 42.6217 920.641 42.7988 920.1 42.7988ZM928.266 49.3535V56.1973H924.445V44.1973H928.078V46.4004H928.211C928.477 45.666 928.93 45.0905 929.57 44.6738C930.211 44.252 930.974 44.041 931.859 44.041C932.703 44.041 933.435 44.2311 934.055 44.6113C934.68 44.9863 935.164 45.5124 935.508 46.1895C935.857 46.8613 936.029 47.6478 936.023 48.5488V56.1973H932.203V49.2988C932.208 48.6322 932.039 48.1113 931.695 47.7363C931.357 47.3613 930.885 47.1738 930.281 47.1738C929.88 47.1738 929.526 47.2624 929.219 47.4395C928.917 47.6113 928.682 47.8587 928.516 48.1816C928.354 48.5046 928.271 48.8952 928.266 49.3535ZM943.998 56.4238C942.743 56.4238 941.66 56.1764 940.748 55.6816C939.842 55.1816 939.144 54.4707 938.654 53.5488C938.17 52.6217 937.928 51.5202 937.928 50.2441C937.928 49.0046 938.173 47.9212 938.662 46.9941C939.152 46.0618 939.842 45.3379 940.732 44.8223C941.623 44.3014 942.673 44.041 943.881 44.041C944.735 44.041 945.516 44.1738 946.225 44.4395C946.933 44.7051 947.545 45.0983 948.061 45.6191C948.576 46.14 948.977 46.7832 949.264 47.5488C949.55 48.3092 949.693 49.1816 949.693 50.166V51.1191H939.264V48.9004H946.139C946.133 48.4941 946.037 48.1322 945.85 47.8145C945.662 47.4967 945.404 47.2493 945.076 47.0723C944.753 46.89 944.381 46.7988 943.959 46.7988C943.532 46.7988 943.149 46.8952 942.811 47.0879C942.472 47.2754 942.204 47.5332 942.006 47.8613C941.808 48.1842 941.704 48.5514 941.693 48.9629V51.2207C941.693 51.7103 941.79 52.14 941.982 52.5098C942.175 52.8743 942.449 53.1582 942.803 53.3613C943.157 53.5645 943.579 53.666 944.068 53.666C944.407 53.666 944.714 53.6191 944.99 53.5254C945.266 53.4316 945.503 53.2936 945.701 53.1113C945.899 52.929 946.048 52.7051 946.146 52.4395L949.654 52.541C949.508 53.3275 949.188 54.0124 948.693 54.5957C948.204 55.1738 947.561 55.6243 946.764 55.9473C945.967 56.265 945.045 56.4238 943.998 56.4238ZM953.793 56.4238C953.23 56.4238 952.749 56.2259 952.348 55.8301C951.952 55.4342 951.757 54.9551 951.762 54.3926C951.757 53.8405 951.952 53.3691 952.348 52.9785C952.749 52.5827 953.23 52.3848 953.793 52.3848C954.324 52.3848 954.793 52.5827 955.199 52.9785C955.611 53.3691 955.819 53.8405 955.824 54.3926C955.819 54.7676 955.72 55.1087 955.527 55.416C955.34 55.7233 955.092 55.9681 954.785 56.1504C954.483 56.3327 954.152 56.4238 953.793 56.4238ZM963.949 56.4238C962.684 56.4238 961.598 56.1634 960.691 55.6426C959.79 55.1217 959.098 54.3978 958.613 53.4707C958.129 52.5384 957.887 51.4603 957.887 50.2363C957.887 49.0072 958.129 47.929 958.613 47.002C959.103 46.0697 959.798 45.3431 960.699 44.8223C961.605 44.3014 962.686 44.041 963.941 44.041C965.051 44.041 966.017 44.2415 966.84 44.6426C967.668 45.0436 968.314 45.6113 968.777 46.3457C969.246 47.0749 969.493 47.9316 969.52 48.916H965.949C965.876 48.3014 965.668 47.8197 965.324 47.4707C964.986 47.1217 964.543 46.9473 963.996 46.9473C963.553 46.9473 963.165 47.0723 962.832 47.3223C962.499 47.5671 962.238 47.9316 962.051 48.416C961.868 48.8952 961.777 49.4889 961.777 50.1973C961.777 50.9056 961.868 51.5046 962.051 51.9941C962.238 52.4785 962.499 52.8457 962.832 53.0957C963.165 53.3405 963.553 53.4629 963.996 53.4629C964.35 53.4629 964.663 53.3874 964.934 53.2363C965.21 53.0853 965.436 52.8639 965.613 52.5723C965.79 52.2754 965.902 51.916 965.949 51.4941H969.52C969.483 52.4837 969.236 53.3483 968.777 54.0879C968.324 54.8275 967.686 55.403 966.863 55.8145C966.046 56.2207 965.074 56.4238 963.949 56.4238ZM977.076 56.4238C975.816 56.4238 974.732 56.166 973.826 55.6504C972.925 55.1296 972.23 54.4056 971.74 53.4785C971.256 52.5462 971.014 51.4655 971.014 50.2363C971.014 49.002 971.256 47.9212 971.74 46.9941C972.23 46.0618 972.925 45.3379 973.826 44.8223C974.732 44.3014 975.816 44.041 977.076 44.041C978.337 44.041 979.417 44.3014 980.318 44.8223C981.225 45.3379 981.92 46.0618 982.404 46.9941C982.894 47.9212 983.139 49.002 983.139 50.2363C983.139 51.4655 982.894 52.5462 982.404 53.4785C981.92 54.4056 981.225 55.1296 980.318 55.6504C979.417 56.166 978.337 56.4238 977.076 56.4238ZM977.1 53.541C977.558 53.541 977.946 53.4004 978.264 53.1191C978.581 52.8379 978.824 52.4473 978.99 51.9473C979.162 51.4473 979.248 50.8691 979.248 50.2129C979.248 49.5462 979.162 48.9629 978.99 48.4629C978.824 47.9629 978.581 47.5723 978.264 47.291C977.946 47.0098 977.558 46.8691 977.1 46.8691C976.626 46.8691 976.225 47.0098 975.896 47.291C975.574 47.5723 975.326 47.9629 975.154 48.4629C974.988 48.9629 974.904 49.5462 974.904 50.2129C974.904 50.8691 974.988 51.4473 975.154 51.9473C975.326 52.4473 975.574 52.8379 975.896 53.1191C976.225 53.4004 976.626 53.541 977.1 53.541ZM987.244 56.4238C986.682 56.4238 986.2 56.2259 985.799 55.8301C985.403 55.4342 985.208 54.9551 985.213 54.3926C985.208 53.8405 985.403 53.3691 985.799 52.9785C986.2 52.5827 986.682 52.3848 987.244 52.3848C987.775 52.3848 988.244 52.5827 988.65 52.9785C989.062 53.3691 989.27 53.8405 989.275 54.3926C989.27 54.7676 989.171 55.1087 988.979 55.416C988.791 55.7233 988.544 55.9681 988.236 56.1504C987.934 56.3327 987.604 56.4238 987.244 56.4238ZM991.799 56.1973V44.1973H995.619V56.1973H991.799ZM993.713 42.7988C993.176 42.7988 992.715 42.6217 992.33 42.2676C991.945 41.9082 991.752 41.4759 991.752 40.9707C991.752 40.4707 991.945 40.0436 992.33 39.6895C992.715 39.3301 993.176 39.1504 993.713 39.1504C994.255 39.1504 994.715 39.3301 995.096 39.6895C995.481 40.0436 995.674 40.4707 995.674 40.9707C995.674 41.4759 995.481 41.9082 995.096 42.2676C994.715 42.6217 994.255 42.7988 993.713 42.7988ZM1002.43 56.3691C1001.55 56.3691 1000.74 56.14 1000.02 55.6816C999.296 55.2233 998.717 54.5358 998.285 53.6191C997.853 52.7025 997.637 51.5645 997.637 50.2051C997.637 48.7936 997.861 47.6322 998.309 46.7207C998.757 45.8092 999.342 45.1348 1000.07 44.6973C1000.8 44.2598 1001.58 44.041 1002.42 44.041C1003.05 44.041 1003.59 44.1504 1004.04 44.3691C1004.48 44.5827 1004.85 44.8587 1005.14 45.1973C1005.44 45.5358 1005.66 45.8874 1005.81 46.252H1005.89V40.1973H1009.71V56.1973H1005.93V54.252H1005.81C1005.65 54.6217 1005.42 54.9681 1005.12 55.291C1004.82 55.6139 1004.45 55.8743 1004 56.0723C1003.56 56.2702 1003.04 56.3691 1002.43 56.3691ZM1003.76 53.3926C1004.23 53.3926 1004.62 53.2624 1004.95 53.002C1005.28 52.7363 1005.53 52.3639 1005.71 51.8848C1005.88 51.4056 1005.97 50.8431 1005.97 50.1973C1005.97 49.541 1005.88 48.9759 1005.71 48.502C1005.54 48.028 1005.28 47.6634 1004.95 47.4082C1004.62 47.153 1004.23 47.0254 1003.76 47.0254C1003.29 47.0254 1002.89 47.1556 1002.56 47.416C1002.23 47.6764 1001.98 48.0436 1001.81 48.5176C1001.64 48.9915 1001.56 49.5514 1001.56 50.1973C1001.56 50.8431 1001.64 51.4056 1001.82 51.8848C1001.99 52.3639 1002.24 52.7363 1002.56 53.002C1002.89 53.2624 1003.29 53.3926 1003.76 53.3926Z" fill="#1E3278"/>
<path d="M37.7134 53.7427H39.1353V60.4458C39.1353 61.0521 39.0153 61.5707 38.7752 62.0016C38.5382 62.4325 38.2043 62.7618 37.7734 62.9895C37.3426 63.2142 36.8378 63.3265 36.2592 63.3265C35.7268 63.3265 35.2482 63.2296 34.8235 63.0357C34.4019 62.8418 34.0679 62.5602 33.8217 62.1909C33.5786 61.8185 33.457 61.3661 33.457 60.8336H34.8743C34.8743 61.0952 34.9343 61.3214 35.0543 61.5123C35.1774 61.7031 35.3452 61.8523 35.5575 61.96C35.773 62.0647 36.0192 62.117 36.2962 62.117C36.5978 62.117 36.8532 62.0539 37.0625 61.9277C37.2749 61.7985 37.4364 61.6092 37.5472 61.3599C37.658 61.1106 37.7134 60.8059 37.7134 60.4458V53.7427ZM42.4811 53.7427V63.1973H41.1008V53.7427H42.4811ZM45.2475 63.285C44.9951 63.285 44.7782 63.1957 44.5966 63.0172C44.415 62.8356 44.3242 62.6171 44.3242 62.3617C44.3242 62.1093 44.415 61.8939 44.5966 61.7154C44.7782 61.5338 44.9951 61.443 45.2475 61.443C45.4999 61.443 45.7169 61.5338 45.8984 61.7154C46.08 61.8939 46.1708 62.1093 46.1708 62.3617C46.1708 62.531 46.1277 62.6864 46.0415 62.8279C45.9585 62.9664 45.8477 63.0772 45.7092 63.1603C45.5707 63.2434 45.4168 63.285 45.2475 63.285ZM50.9523 54.9707V53.7427H58.2694V54.9707H55.3195V63.1973H53.8976V54.9707H50.9523ZM61.7341 63.3404C61.0693 63.3404 60.4892 63.188 59.9937 62.8833C59.4982 62.5787 59.1135 62.1524 58.8396 61.6046C58.5657 61.0568 58.4287 60.4166 58.4287 59.6841C58.4287 58.9486 58.5657 58.3053 58.8396 57.7544C59.1135 57.2035 59.4982 56.7757 59.9937 56.4711C60.4892 56.1664 61.0693 56.014 61.7341 56.014C62.3989 56.014 62.979 56.1664 63.4745 56.4711C63.97 56.7757 64.3547 57.2035 64.6286 57.7544C64.9026 58.3053 65.0395 58.9486 65.0395 59.6841C65.0395 60.4166 64.9026 61.0568 64.6286 61.6046C64.3547 62.1524 63.97 62.5787 63.4745 62.8833C62.979 63.188 62.3989 63.3404 61.7341 63.3404ZM61.7387 62.1816C62.1696 62.1816 62.5266 62.0678 62.8097 61.84C63.0929 61.6123 63.3022 61.3091 63.4376 60.9306C63.5761 60.552 63.6453 60.135 63.6453 59.6795C63.6453 59.2271 63.5761 58.8116 63.4376 58.4331C63.3022 58.0514 63.0929 57.7452 62.8097 57.5144C62.5266 57.2836 62.1696 57.1681 61.7387 57.1681C61.3048 57.1681 60.9447 57.2836 60.6585 57.5144C60.3753 57.7452 60.1645 58.0514 60.026 58.4331C59.8906 58.8116 59.8229 59.2271 59.8229 59.6795C59.8229 60.135 59.8906 60.552 60.026 60.9306C60.1645 61.3091 60.3753 61.6123 60.6585 61.84C60.9447 62.0678 61.3048 62.1816 61.7387 62.1816ZM66.5803 63.1973V56.1064H67.9052V57.2605H67.9929C68.1406 56.8696 68.3822 56.5649 68.7177 56.3464C69.0531 56.1248 69.4548 56.014 69.9226 56.014C70.3965 56.014 70.7936 56.1248 71.1136 56.3464C71.4368 56.568 71.6753 56.8727 71.8292 57.2605H71.9031C72.0723 56.8819 72.3416 56.5803 72.7109 56.3556C73.0803 56.1279 73.5204 56.014 74.0312 56.014C74.6745 56.014 75.1992 56.2156 75.6055 56.6188C76.0148 57.022 76.2195 57.6298 76.2195 58.4423V63.1973H74.8391V58.5716C74.8391 58.0914 74.7083 57.7437 74.4467 57.5282C74.1851 57.3128 73.8728 57.2051 73.5096 57.2051C73.0603 57.2051 72.7109 57.3436 72.4616 57.6206C72.2124 57.8945 72.0877 58.2469 72.0877 58.6777V63.1973H70.712V58.4838C70.712 58.0991 70.592 57.7898 70.3519 57.5559C70.1119 57.322 69.7995 57.2051 69.4148 57.2051C69.1532 57.2051 68.9116 57.2743 68.69 57.4128C68.4715 57.5482 68.2945 57.7375 68.1591 57.9806C68.0268 58.2238 67.9606 58.5054 67.9606 58.8255V63.1973H66.5803ZM80.1331 63.3542C79.6837 63.3542 79.2775 63.2711 78.9143 63.1049C78.5512 62.9357 78.2634 62.691 78.051 62.3709C77.8418 62.0508 77.7371 61.6584 77.7371 61.1937C77.7371 60.7936 77.8141 60.4643 77.968 60.2058C78.1218 59.9473 78.3296 59.7426 78.5912 59.5918C78.8528 59.441 79.1452 59.3271 79.4683 59.2502C79.7915 59.1732 80.1208 59.1148 80.4562 59.0748C80.8809 59.0255 81.2256 58.9855 81.4903 58.9547C81.755 58.9209 81.9474 58.867 82.0674 58.7931C82.1874 58.7193 82.2474 58.5993 82.2474 58.4331V58.4007C82.2474 57.9976 82.1336 57.6852 81.9058 57.4636C81.6811 57.242 81.3457 57.1312 80.8994 57.1312C80.4347 57.1312 80.0684 57.2343 79.8007 57.4405C79.536 57.6436 79.3529 57.8699 79.2513 58.1191L77.9541 57.8237C78.108 57.3928 78.3327 57.045 78.6281 56.7804C78.9266 56.5126 79.2698 56.3187 79.6576 56.1987C80.0454 56.0756 80.4532 56.014 80.8809 56.014C81.1641 56.014 81.4642 56.0479 81.7812 56.1156C82.1012 56.1802 82.3998 56.3002 82.6768 56.4757C82.9568 56.6511 83.1861 56.9019 83.3646 57.2282C83.5431 57.5513 83.6324 57.9714 83.6324 58.4885V63.1973H82.2844V62.2278H82.229C82.1397 62.4063 82.0058 62.5817 81.8273 62.7541C81.6488 62.9264 81.4195 63.0695 81.1395 63.1834C80.8594 63.2973 80.5239 63.3542 80.1331 63.3542ZM80.4331 62.2463C80.8148 62.2463 81.141 62.1709 81.4118 62.0201C81.6858 61.8693 81.8935 61.6723 82.0351 61.4292C82.1797 61.1829 82.252 60.9198 82.252 60.6397V59.7257C82.2028 59.7749 82.1074 59.8211 81.9658 59.8642C81.8273 59.9042 81.6688 59.9396 81.4903 59.9703C81.3118 59.998 81.1379 60.0242 80.9687 60.0488C80.7994 60.0704 80.6578 60.0888 80.5439 60.1042C80.2762 60.1381 80.0315 60.195 79.8099 60.275C79.5914 60.3551 79.416 60.4705 79.2836 60.6213C79.1544 60.769 79.0898 60.966 79.0898 61.2122C79.0898 61.5538 79.2159 61.8123 79.4683 61.9877C79.7207 62.1601 80.0423 62.2463 80.4331 62.2463ZM86.8512 58.987V63.1973H85.4709V56.1064H86.7958V57.2605H86.8835C87.0466 56.885 87.3021 56.5834 87.6499 56.3556C88.0007 56.1279 88.4424 56.014 88.9748 56.014C89.458 56.014 89.8812 56.1156 90.2443 56.3187C90.6075 56.5188 90.8891 56.8173 91.0891 57.2143C91.2892 57.6113 91.3892 58.1022 91.3892 58.687V63.1973H90.0089V58.8532C90.0089 58.3392 89.875 57.9376 89.6072 57.6483C89.3395 57.3559 88.9717 57.2097 88.5039 57.2097C88.1838 57.2097 87.8991 57.2789 87.6499 57.4174C87.4036 57.5559 87.2082 57.7591 87.0636 58.0268C86.922 58.2915 86.8512 58.6116 86.8512 58.987ZM96.2134 66.0041C95.6502 66.0041 95.1655 65.9302 94.7592 65.7825C94.3561 65.6348 94.0268 65.4393 93.7713 65.1962C93.5159 64.9531 93.325 64.6868 93.1989 64.3975L94.3853 63.9082C94.4684 64.0436 94.5792 64.1867 94.7177 64.3375C94.8593 64.4914 95.0501 64.6222 95.2901 64.7299C95.5333 64.8377 95.8456 64.8915 96.2273 64.8915C96.7505 64.8915 97.1829 64.7638 97.5245 64.5083C97.8661 64.256 98.0369 63.8528 98.0369 63.2988V61.9047H97.9492C97.8661 62.0555 97.7461 62.2232 97.5891 62.4078C97.4353 62.5925 97.2229 62.7525 96.9521 62.888C96.6812 63.0234 96.3288 63.0911 95.8949 63.0911C95.3348 63.0911 94.83 62.9603 94.3807 62.6987C93.9344 62.434 93.5805 62.0447 93.3189 61.5307C93.0604 61.0137 92.9311 60.3781 92.9311 59.6241C92.9311 58.8701 93.0588 58.2238 93.3143 57.6852C93.5728 57.1466 93.9267 56.7342 94.3761 56.448C94.8254 56.1587 95.3348 56.014 95.9041 56.014C96.3442 56.014 96.6997 56.0879 96.9705 56.2356C97.2414 56.3803 97.4522 56.5495 97.603 56.7434C97.7569 56.9373 97.8754 57.1081 97.9585 57.2559H98.06V56.1064H99.4126V63.3542C99.4126 63.9636 99.2711 64.4637 98.9879 64.8546C98.7048 65.2454 98.3216 65.5347 97.8384 65.7225C97.3583 65.9102 96.8166 66.0041 96.2134 66.0041ZM96.1996 61.9462C96.5966 61.9462 96.9321 61.8539 97.206 61.6692C97.483 61.4815 97.6922 61.2137 97.8338 60.8659C97.9785 60.5151 98.0508 60.095 98.0508 59.6056C98.0508 59.1286 97.98 58.7085 97.8384 58.3453C97.6969 57.9822 97.4891 57.699 97.2152 57.4959C96.9413 57.2897 96.6027 57.1866 96.1996 57.1866C95.7841 57.1866 95.4379 57.2943 95.1609 57.5098C94.8839 57.7221 94.6746 58.0114 94.533 58.3777C94.3945 58.7439 94.3253 59.1532 94.3253 59.6056C94.3253 60.0704 94.3961 60.4782 94.5376 60.829C94.6792 61.1799 94.8885 61.4538 95.1655 61.6507C95.4455 61.8477 95.7902 61.9462 96.1996 61.9462ZM104.815 63.1973V53.7427H108.185C108.918 53.7427 109.525 53.8689 110.009 54.1213C110.495 54.3736 110.858 54.723 111.098 55.1692C111.338 55.6124 111.458 56.1248 111.458 56.7065C111.458 57.2851 111.337 57.7944 111.093 58.2346C110.853 58.6716 110.49 59.0117 110.004 59.2548C109.521 59.4979 108.913 59.6195 108.18 59.6195H105.628V58.3915H108.051C108.513 58.3915 108.888 58.3253 109.178 58.193C109.47 58.0607 109.684 57.8683 109.819 57.6159C109.955 57.3636 110.022 57.0604 110.022 56.7065C110.022 56.3495 109.953 56.0402 109.815 55.7786C109.679 55.517 109.465 55.3169 109.173 55.1784C108.884 55.0369 108.504 54.9661 108.033 54.9661H106.242V63.1973H104.815ZM109.482 58.9316L111.818 63.1973H110.193L107.903 58.9316H109.482ZM115.147 63.3542C114.697 63.3542 114.291 63.2711 113.928 63.1049C113.565 62.9357 113.277 62.691 113.065 62.3709C112.855 62.0508 112.751 61.6584 112.751 61.1937C112.751 60.7936 112.828 60.4643 112.982 60.2058C113.136 59.9473 113.343 59.7426 113.605 59.5918C113.866 59.441 114.159 59.3271 114.482 59.2502C114.805 59.1732 115.134 59.1148 115.47 59.0748C115.895 59.0255 116.239 58.9855 116.504 58.9547C116.769 58.9209 116.961 58.867 117.081 58.7931C117.201 58.7193 117.261 58.5993 117.261 58.4331V58.4007C117.261 57.9976 117.147 57.6852 116.919 57.4636C116.695 57.242 116.359 57.1312 115.913 57.1312C115.448 57.1312 115.082 57.2343 114.814 57.4405C114.55 57.6436 114.367 57.8699 114.265 58.1191L112.968 57.8237C113.122 57.3928 113.346 57.045 113.642 56.7804C113.94 56.5126 114.283 56.3187 114.671 56.1987C115.059 56.0756 115.467 56.014 115.895 56.014C116.178 56.014 116.478 56.0479 116.795 56.1156C117.115 56.1802 117.413 56.3002 117.69 56.4757C117.97 56.6511 118.2 56.9019 118.378 57.2282C118.557 57.5513 118.646 57.9714 118.646 58.4885V63.1973H117.298V62.2278H117.243C117.153 62.4063 117.02 62.5817 116.841 62.7541C116.662 62.9264 116.433 63.0695 116.153 63.1834C115.873 63.2973 115.538 63.3542 115.147 63.3542ZM115.447 62.2463C115.828 62.2463 116.155 62.1709 116.426 62.0201C116.699 61.8693 116.907 61.6723 117.049 61.4292C117.193 61.1829 117.266 60.9198 117.266 60.6397V59.7257C117.216 59.7749 117.121 59.8211 116.979 59.8642C116.841 59.9042 116.682 59.9396 116.504 59.9703C116.325 59.998 116.152 60.0242 115.982 60.0488C115.813 60.0704 115.671 60.0888 115.558 60.1042C115.29 60.1381 115.045 60.195 114.824 60.275C114.605 60.3551 114.43 60.4705 114.297 60.6213C114.168 60.769 114.103 60.966 114.103 61.2122C114.103 61.5538 114.23 61.8123 114.482 61.9877C114.734 62.1601 115.056 62.2463 115.447 62.2463ZM121.103 65.8564C120.897 65.8564 120.709 65.8394 120.54 65.8056C120.371 65.7748 120.244 65.7409 120.161 65.704L120.494 64.573C120.746 64.6407 120.971 64.6699 121.168 64.6607C121.365 64.6515 121.539 64.5776 121.689 64.4391C121.843 64.3006 121.979 64.0744 122.096 63.7605L122.267 63.2896L119.672 56.1064H121.149L122.945 61.6092H123.019L124.815 56.1064H126.297L123.374 64.1436C123.239 64.513 123.067 64.8253 122.857 65.0808C122.648 65.3393 122.399 65.5332 122.11 65.6625C121.82 65.7917 121.485 65.8564 121.103 65.8564ZM129.454 63.3542C129.005 63.3542 128.599 63.2711 128.236 63.1049C127.872 62.9357 127.585 62.691 127.372 62.3709C127.163 62.0508 127.058 61.6584 127.058 61.1937C127.058 60.7936 127.135 60.4643 127.289 60.2058C127.443 59.9473 127.651 59.7426 127.912 59.5918C128.174 59.441 128.466 59.3271 128.79 59.2502C129.113 59.1732 129.442 59.1148 129.778 59.0748C130.202 59.0255 130.547 58.9855 130.812 58.9547C131.076 58.9209 131.269 58.867 131.389 58.7931C131.509 58.7193 131.569 58.5993 131.569 58.4331V58.4007C131.569 57.9976 131.455 57.6852 131.227 57.4636C131.002 57.242 130.667 57.1312 130.221 57.1312C129.756 57.1312 129.39 57.2343 129.122 57.4405C128.857 57.6436 128.674 57.8699 128.573 58.1191L127.275 57.8237C127.429 57.3928 127.654 57.045 127.949 56.7804C128.248 56.5126 128.591 56.3187 128.979 56.1987C129.367 56.0756 129.774 56.014 130.202 56.014C130.485 56.014 130.785 56.0479 131.102 56.1156C131.423 56.1802 131.721 56.3002 131.998 56.4757C132.278 56.6511 132.507 56.9019 132.686 57.2282C132.864 57.5513 132.954 57.9714 132.954 58.4885V63.1973H131.606V62.2278H131.55C131.461 62.4063 131.327 62.5817 131.149 62.7541C130.97 62.9264 130.741 63.0695 130.461 63.1834C130.181 63.2973 129.845 63.3542 129.454 63.3542ZM129.754 62.2463C130.136 62.2463 130.462 62.1709 130.733 62.0201C131.007 61.8693 131.215 61.6723 131.356 61.4292C131.501 61.1829 131.573 60.9198 131.573 60.6397V59.7257C131.524 59.7749 131.429 59.8211 131.287 59.8642C131.149 59.9042 130.99 59.9396 130.812 59.9703C130.633 59.998 130.459 60.0242 130.29 60.0488C130.121 60.0704 129.979 60.0888 129.865 60.1042C129.597 60.1381 129.353 60.195 129.131 60.275C128.913 60.3551 128.737 60.4705 128.605 60.6213C128.476 60.769 128.411 60.966 128.411 61.2122C128.411 61.5538 128.537 61.8123 128.79 61.9877C129.042 62.1601 129.364 62.2463 129.754 62.2463ZM145.974 53.7427V63.1973H144.663L139.858 56.2633H139.77V63.1973H138.343V53.7427H139.664L144.474 60.6859H144.562V53.7427H145.974ZM150.931 63.3404C150.267 63.3404 149.686 63.188 149.191 62.8833C148.695 62.5787 148.311 62.1524 148.037 61.6046C147.763 61.0568 147.626 60.4166 147.626 59.6841C147.626 58.9486 147.763 58.3053 148.037 57.7544C148.311 57.2035 148.695 56.7757 149.191 56.4711C149.686 56.1664 150.267 56.014 150.931 56.014C151.596 56.014 152.176 56.1664 152.672 56.4711C153.167 56.7757 153.552 57.2035 153.826 57.7544C154.1 58.3053 154.237 58.9486 154.237 59.6841C154.237 60.4166 154.1 61.0568 153.826 61.6046C153.552 62.1524 153.167 62.5787 152.672 62.8833C152.176 63.188 151.596 63.3404 150.931 63.3404ZM150.936 62.1816C151.367 62.1816 151.724 62.0678 152.007 61.84C152.29 61.6123 152.499 61.3091 152.635 60.9306C152.773 60.552 152.843 60.135 152.843 59.6795C152.843 59.2271 152.773 58.8116 152.635 58.4331C152.499 58.0514 152.29 57.7452 152.007 57.5144C151.724 57.2836 151.367 57.1681 150.936 57.1681C150.502 57.1681 150.142 57.2836 149.856 57.5144C149.573 57.7452 149.362 58.0514 149.223 58.4331C149.088 58.8116 149.02 59.2271 149.02 59.6795C149.02 60.135 149.088 60.552 149.223 60.9306C149.362 61.3091 149.573 61.6123 149.856 61.84C150.142 62.0678 150.502 62.1816 150.936 62.1816ZM156.687 63.285C156.435 63.285 156.218 63.1957 156.036 63.0172C155.854 62.8356 155.764 62.6171 155.764 62.3617C155.764 62.1093 155.854 61.8939 156.036 61.7154C156.218 61.5338 156.435 61.443 156.687 61.443C156.939 61.443 157.156 61.5338 157.338 61.7154C157.519 61.8939 157.61 62.1093 157.61 62.3617C157.61 62.531 157.567 62.6864 157.481 62.8279C157.398 62.9664 157.287 63.0772 157.149 63.1603C157.01 63.2434 156.856 63.285 156.687 63.285ZM161.885 53.7427V63.1973H160.454V55.1738H160.399L158.137 56.6511V55.2846L160.496 53.7427H161.885ZM168.03 53.7427V63.1973H166.599V55.1738H166.543L164.281 56.6511V55.2846L166.64 53.7427H168.03ZM171.856 61.9047L171.786 62.4078C171.74 62.7772 171.662 63.1619 171.551 63.562C171.443 63.9651 171.331 64.3391 171.214 64.6838C171.1 65.0285 171.006 65.3024 170.932 65.5055H169.954C169.994 65.3147 170.049 65.0562 170.12 64.7299C170.191 64.4068 170.26 64.0452 170.328 63.6451C170.395 63.245 170.446 62.8372 170.48 62.4217L170.526 61.9047H171.856ZM180.878 53.7427H182.3V60.4458C182.3 61.0521 182.18 61.5707 181.94 62.0016C181.703 62.4325 181.369 62.7618 180.938 62.9895C180.508 63.2142 180.003 63.3265 179.424 63.3265C178.892 63.3265 178.413 63.2296 177.989 63.0357C177.567 62.8418 177.233 62.5602 176.987 62.1909C176.744 61.8185 176.622 61.3661 176.622 60.8336H178.039C178.039 61.0952 178.099 61.3214 178.219 61.5123C178.342 61.7031 178.51 61.8523 178.723 61.96C178.938 62.0647 179.184 62.117 179.461 62.117C179.763 62.117 180.018 62.0539 180.228 61.9277C180.44 61.7985 180.601 61.6092 180.712 61.3599C180.823 61.1106 180.878 60.8059 180.878 60.4458V53.7427ZM186.329 63.3542C185.88 63.3542 185.474 63.2711 185.111 63.1049C184.747 62.9357 184.46 62.691 184.247 62.3709C184.038 62.0508 183.933 61.6584 183.933 61.1937C183.933 60.7936 184.01 60.4643 184.164 60.2058C184.318 59.9473 184.526 59.7426 184.787 59.5918C185.049 59.441 185.341 59.3271 185.665 59.2502C185.988 59.1732 186.317 59.1148 186.653 59.0748C187.077 59.0255 187.422 58.9855 187.687 58.9547C187.951 58.9209 188.144 58.867 188.264 58.7931C188.384 58.7193 188.444 58.5993 188.444 58.4331V58.4007C188.444 57.9976 188.33 57.6852 188.102 57.4636C187.877 57.242 187.542 57.1312 187.096 57.1312C186.631 57.1312 186.265 57.2343 185.997 57.4405C185.732 57.6436 185.549 57.8699 185.448 58.1191L184.15 57.8237C184.304 57.3928 184.529 57.045 184.824 56.7804C185.123 56.5126 185.466 56.3187 185.854 56.1987C186.242 56.0756 186.649 56.014 187.077 56.014C187.36 56.014 187.66 56.0479 187.977 56.1156C188.298 56.1802 188.596 56.3002 188.873 56.4757C189.153 56.6511 189.382 56.9019 189.561 57.2282C189.739 57.5513 189.829 57.9714 189.829 58.4885V63.1973H188.481V62.2278H188.425C188.336 62.4063 188.202 62.5817 188.024 62.7541C187.845 62.9264 187.616 63.0695 187.336 63.1834C187.056 63.2973 186.72 63.3542 186.329 63.3542ZM186.629 62.2463C187.011 62.2463 187.337 62.1709 187.608 62.0201C187.882 61.8693 188.09 61.6723 188.231 61.4292C188.376 61.1829 188.448 60.9198 188.448 60.6397V59.7257C188.399 59.7749 188.304 59.8211 188.162 59.8642C188.024 59.9042 187.865 59.9396 187.687 59.9703C187.508 59.998 187.334 60.0242 187.165 60.0488C186.996 60.0704 186.854 60.0888 186.74 60.1042C186.472 60.1381 186.228 60.195 186.006 60.275C185.788 60.3551 185.612 60.4705 185.48 60.6213C185.351 60.769 185.286 60.966 185.286 61.2122C185.286 61.5538 185.412 61.8123 185.665 61.9877C185.917 62.1601 186.239 62.2463 186.629 62.2463ZM192.937 60.7921L192.927 59.1071H193.168L195.993 56.1064H197.646L194.423 59.5225H194.206L192.937 60.7921ZM191.667 63.1973V53.7427H193.047V63.1973H191.667ZM196.145 63.1973L193.606 59.8272L194.557 58.8624L197.839 63.1973H196.145ZM200.967 63.3542C200.518 63.3542 200.111 63.2711 199.748 63.1049C199.385 62.9357 199.097 62.691 198.885 62.3709C198.676 62.0508 198.571 61.6584 198.571 61.1937C198.571 60.7936 198.648 60.4643 198.802 60.2058C198.956 59.9473 199.164 59.7426 199.425 59.5918C199.687 59.441 199.979 59.3271 200.302 59.2502C200.625 59.1732 200.955 59.1148 201.29 59.0748C201.715 59.0255 202.06 58.9855 202.324 58.9547C202.589 58.9209 202.781 58.867 202.901 58.7931C203.021 58.7193 203.081 58.5993 203.081 58.4331V58.4007C203.081 57.9976 202.968 57.6852 202.74 57.4636C202.515 57.242 202.18 57.1312 201.733 57.1312C201.269 57.1312 200.902 57.2343 200.635 57.4405C200.37 57.6436 200.187 57.8699 200.085 58.1191L198.788 57.8237C198.942 57.3928 199.167 57.045 199.462 56.7804C199.761 56.5126 200.104 56.3187 200.492 56.1987C200.879 56.0756 201.287 56.014 201.715 56.014C201.998 56.014 202.298 56.0479 202.615 56.1156C202.935 56.1802 203.234 56.3002 203.511 56.4757C203.791 56.6511 204.02 56.9019 204.199 57.2282C204.377 57.5513 204.466 57.9714 204.466 58.4885V63.1973H203.118V62.2278H203.063C202.974 62.4063 202.84 62.5817 202.661 62.7541C202.483 62.9264 202.254 63.0695 201.973 63.1834C201.693 63.2973 201.358 63.3542 200.967 63.3542ZM201.267 62.2463C201.649 62.2463 201.975 62.1709 202.246 62.0201C202.52 61.8693 202.727 61.6723 202.869 61.4292C203.014 61.1829 203.086 60.9198 203.086 60.6397V59.7257C203.037 59.7749 202.941 59.8211 202.8 59.8642C202.661 59.9042 202.503 59.9396 202.324 59.9703C202.146 59.998 201.972 60.0242 201.803 60.0488C201.633 60.0704 201.492 60.0888 201.378 60.1042C201.11 60.1381 200.866 60.195 200.644 60.275C200.425 60.3551 200.25 60.4705 200.118 60.6213C199.988 60.769 199.924 60.966 199.924 61.2122C199.924 61.5538 200.05 61.8123 200.302 61.9877C200.555 62.1601 200.876 62.2463 201.267 62.2463ZM206.305 63.1973V56.1064H207.639V57.2328H207.713C207.842 56.8511 208.07 56.5511 208.396 56.3326C208.725 56.111 209.098 56.0002 209.513 56.0002C209.599 56.0002 209.701 56.0033 209.818 56.0094C209.938 56.0156 210.032 56.0233 210.1 56.0325V57.3528C210.044 57.3374 209.946 57.3205 209.804 57.302C209.663 57.2805 209.521 57.2697 209.379 57.2697C209.053 57.2697 208.762 57.339 208.507 57.4775C208.255 57.6129 208.055 57.8021 207.907 58.0453C207.759 58.2853 207.685 58.5592 207.685 58.867V63.1973H206.305ZM215.023 56.1064V57.2143H211.15V56.1064H215.023ZM212.189 54.4075H213.569V61.1152C213.569 61.383 213.609 61.5846 213.689 61.72C213.769 61.8523 213.872 61.9431 213.998 61.9924C214.127 62.0385 214.268 62.0616 214.418 62.0616C214.529 62.0616 214.626 62.0539 214.709 62.0385C214.792 62.0231 214.857 62.0108 214.903 62.0016L215.152 63.1419C215.072 63.1726 214.958 63.2034 214.811 63.2342C214.663 63.2681 214.478 63.2865 214.257 63.2896C213.894 63.2958 213.555 63.2311 213.241 63.0957C212.927 62.9603 212.673 62.751 212.479 62.4679C212.286 62.1847 212.189 61.8292 212.189 61.4015V54.4075ZM218.614 63.3542C218.164 63.3542 217.758 63.2711 217.395 63.1049C217.032 62.9357 216.744 62.691 216.532 62.3709C216.322 62.0508 216.218 61.6584 216.218 61.1937C216.218 60.7936 216.295 60.4643 216.448 60.2058C216.602 59.9473 216.81 59.7426 217.072 59.5918C217.333 59.441 217.626 59.3271 217.949 59.2502C218.272 59.1732 218.601 59.1148 218.937 59.0748C219.361 59.0255 219.706 58.9855 219.971 58.9547C220.235 58.9209 220.428 58.867 220.548 58.7931C220.668 58.7193 220.728 58.5993 220.728 58.4331V58.4007C220.728 57.9976 220.614 57.6852 220.386 57.4636C220.162 57.242 219.826 57.1312 219.38 57.1312C218.915 57.1312 218.549 57.2343 218.281 57.4405C218.016 57.6436 217.833 57.8699 217.732 58.1191L216.435 57.8237C216.588 57.3928 216.813 57.045 217.109 56.7804C217.407 56.5126 217.75 56.3187 218.138 56.1987C218.526 56.0756 218.934 56.014 219.361 56.014C219.645 56.014 219.945 56.0479 220.262 56.1156C220.582 56.1802 220.88 56.3002 221.157 56.4757C221.437 56.6511 221.667 56.9019 221.845 57.2282C222.024 57.5513 222.113 57.9714 222.113 58.4885V63.1973H220.765V62.2278H220.709C220.62 62.4063 220.486 62.5817 220.308 62.7541C220.129 62.9264 219.9 63.0695 219.62 63.1834C219.34 63.2973 219.004 63.3542 218.614 63.3542ZM218.914 62.2463C219.295 62.2463 219.621 62.1709 219.892 62.0201C220.166 61.8693 220.374 61.6723 220.516 61.4292C220.66 61.1829 220.733 60.9198 220.733 60.6397V59.7257C220.683 59.7749 220.588 59.8211 220.446 59.8642C220.308 59.9042 220.149 59.9396 219.971 59.9703C219.792 59.998 219.618 60.0242 219.449 60.0488C219.28 60.0704 219.138 60.0888 219.024 60.1042C218.757 60.1381 218.512 60.195 218.29 60.275C218.072 60.3551 217.896 60.4705 217.764 60.6213C217.635 60.769 217.57 60.966 217.57 61.2122C217.57 61.5538 217.696 61.8123 217.949 61.9877C218.201 62.1601 218.523 62.2463 218.914 62.2463ZM227.503 63.1973V53.7427H230.965C231.636 53.7427 232.191 53.8535 232.631 54.0751C233.072 54.2936 233.401 54.5906 233.619 54.9661C233.838 55.3385 233.947 55.7586 233.947 56.2264C233.947 56.6203 233.875 56.9527 233.73 57.2235C233.586 57.4913 233.392 57.7067 233.149 57.8699C232.908 58.0299 232.644 58.1468 232.354 58.2207V58.313C232.668 58.3284 232.975 58.43 233.273 58.6177C233.575 58.8024 233.824 59.0655 234.021 59.4071C234.218 59.7488 234.316 60.1642 234.316 60.6536C234.316 61.1368 234.203 61.5707 233.975 61.9554C233.75 62.3371 233.402 62.6402 232.932 62.8649C232.461 63.0865 231.859 63.1973 231.127 63.1973H227.503ZM228.929 61.9739H230.988C231.671 61.9739 232.161 61.8416 232.456 61.5769C232.752 61.3122 232.899 60.9814 232.899 60.5843C232.899 60.2858 232.824 60.0119 232.673 59.7626C232.522 59.5133 232.307 59.3148 232.027 59.1671C231.75 59.0194 231.42 58.9455 231.039 58.9455H228.929V61.9739ZM228.929 57.8329H230.84C231.16 57.8329 231.448 57.7714 231.704 57.6483C231.962 57.5252 232.167 57.3528 232.318 57.1312C232.471 56.9065 232.548 56.6419 232.548 56.3372C232.548 55.9463 232.411 55.6185 232.138 55.3539C231.864 55.0892 231.444 54.9569 230.877 54.9569H228.929V57.8329ZM237.961 63.3542C237.512 63.3542 237.106 63.2711 236.742 63.1049C236.379 62.9357 236.092 62.691 235.879 62.3709C235.67 62.0508 235.565 61.6584 235.565 61.1937C235.565 60.7936 235.642 60.4643 235.796 60.2058C235.95 59.9473 236.158 59.7426 236.419 59.5918C236.681 59.441 236.973 59.3271 237.296 59.2502C237.62 59.1732 237.949 59.1148 238.284 59.0748C238.709 59.0255 239.054 58.9855 239.318 58.9547C239.583 58.9209 239.775 58.867 239.896 58.7931C240.016 58.7193 240.076 58.5993 240.076 58.4331V58.4007C240.076 57.9976 239.962 57.6852 239.734 57.4636C239.509 57.242 239.174 57.1312 238.728 57.1312C238.263 57.1312 237.897 57.2343 237.629 57.4405C237.364 57.6436 237.181 57.8699 237.079 58.1191L235.782 57.8237C235.936 57.3928 236.161 57.045 236.456 56.7804C236.755 56.5126 237.098 56.3187 237.486 56.1987C237.873 56.0756 238.281 56.014 238.709 56.014C238.992 56.014 239.292 56.0479 239.609 56.1156C239.929 56.1802 240.228 56.3002 240.505 56.4757C240.785 56.6511 241.014 56.9019 241.193 57.2282C241.371 57.5513 241.46 57.9714 241.46 58.4885V63.1973H240.112V62.2278H240.057C239.968 62.4063 239.834 62.5817 239.655 62.7541C239.477 62.9264 239.248 63.0695 238.968 63.1834C238.688 63.2973 238.352 63.3542 237.961 63.3542ZM238.261 62.2463C238.643 62.2463 238.969 62.1709 239.24 62.0201C239.514 61.8693 239.722 61.6723 239.863 61.4292C240.008 61.1829 240.08 60.9198 240.08 60.6397V59.7257C240.031 59.7749 239.936 59.8211 239.794 59.8642C239.655 59.9042 239.497 59.9396 239.318 59.9703C239.14 59.998 238.966 60.0242 238.797 60.0488C238.628 60.0704 238.486 60.0888 238.372 60.1042C238.104 60.1381 237.86 60.195 237.638 60.275C237.42 60.3551 237.244 60.4705 237.112 60.6213C236.983 60.769 236.918 60.966 236.918 61.2122C236.918 61.5538 237.044 61.8123 237.296 61.9877C237.549 62.1601 237.87 62.2463 238.261 62.2463ZM243.299 63.1973V56.1064H244.633V57.2328H244.707C244.836 56.8511 245.064 56.5511 245.39 56.3326C245.72 56.111 246.092 56.0002 246.507 56.0002C246.594 56.0002 246.695 56.0033 246.812 56.0094C246.932 56.0156 247.026 56.0233 247.094 56.0325V57.3528C247.038 57.3374 246.94 57.3205 246.798 57.302C246.657 57.2805 246.515 57.2697 246.374 57.2697C246.047 57.2697 245.757 57.339 245.501 57.4775C245.249 57.6129 245.049 57.8021 244.901 58.0453C244.753 58.2853 244.679 58.5592 244.679 58.867V63.1973H243.299ZM250.288 63.3542C249.839 63.3542 249.433 63.2711 249.07 63.1049C248.706 62.9357 248.419 62.691 248.206 62.3709C247.997 62.0508 247.892 61.6584 247.892 61.1937C247.892 60.7936 247.969 60.4643 248.123 60.2058C248.277 59.9473 248.485 59.7426 248.746 59.5918C249.008 59.441 249.3 59.3271 249.624 59.2502C249.947 59.1732 250.276 59.1148 250.612 59.0748C251.036 59.0255 251.381 58.9855 251.646 58.9547C251.91 58.9209 252.103 58.867 252.223 58.7931C252.343 58.7193 252.403 58.5993 252.403 58.4331V58.4007C252.403 57.9976 252.289 57.6852 252.061 57.4636C251.836 57.242 251.501 57.1312 251.055 57.1312C250.59 57.1312 250.224 57.2343 249.956 57.4405C249.691 57.6436 249.508 57.8699 249.407 58.1191L248.109 57.8237C248.263 57.3928 248.488 57.045 248.783 56.7804C249.082 56.5126 249.425 56.3187 249.813 56.1987C250.201 56.0756 250.608 56.014 251.036 56.014C251.319 56.014 251.619 56.0479 251.936 56.1156C252.257 56.1802 252.555 56.3002 252.832 56.4757C253.112 56.6511 253.341 56.9019 253.52 57.2282C253.698 57.5513 253.788 57.9714 253.788 58.4885V63.1973H252.44V62.2278H252.384C252.295 62.4063 252.161 62.5817 251.983 62.7541C251.804 62.9264 251.575 63.0695 251.295 63.1834C251.015 63.2973 250.679 63.3542 250.288 63.3542ZM250.588 62.2463C250.97 62.2463 251.296 62.1709 251.567 62.0201C251.841 61.8693 252.049 61.6723 252.19 61.4292C252.335 61.1829 252.407 60.9198 252.407 60.6397V59.7257C252.358 59.7749 252.263 59.8211 252.121 59.8642C251.983 59.9042 251.824 59.9396 251.646 59.9703C251.467 59.998 251.293 60.0242 251.124 60.0488C250.955 60.0704 250.813 60.0888 250.699 60.1042C250.431 60.1381 250.187 60.195 249.965 60.275C249.747 60.3551 249.571 60.4705 249.439 60.6213C249.31 60.769 249.245 60.966 249.245 61.2122C249.245 61.5538 249.371 61.8123 249.624 61.9877C249.876 62.1601 250.198 62.2463 250.588 62.2463ZM258.936 56.1064V57.2143H255.063V56.1064H258.936ZM256.102 54.4075H257.482V61.1152C257.482 61.383 257.522 61.5846 257.602 61.72C257.682 61.8523 257.785 61.9431 257.911 61.9924C258.041 62.0385 258.181 62.0616 258.331 62.0616C258.442 62.0616 258.539 62.0539 258.622 62.0385C258.705 62.0231 258.77 62.0108 258.816 62.0016L259.065 63.1419C258.985 63.1726 258.872 63.2034 258.724 63.2342C258.576 63.2681 258.391 63.2865 258.17 63.2896C257.807 63.2958 257.468 63.2311 257.154 63.0957C256.84 62.9603 256.586 62.751 256.392 62.4679C256.199 62.1847 256.102 61.8292 256.102 61.4015V54.4075ZM262.259 61.9047L262.19 62.4078C262.143 62.7772 262.065 63.1619 261.954 63.562C261.846 63.9651 261.734 64.3391 261.617 64.6838C261.503 65.0285 261.409 65.3024 261.336 65.5055H260.357C260.397 65.3147 260.452 65.0562 260.523 64.7299C260.594 64.4068 260.663 64.0452 260.731 63.6451C260.799 63.245 260.849 62.8372 260.883 62.4217L260.929 61.9047H262.259ZM271.065 53.7427V63.1973H269.634V55.1738H269.578L267.316 56.6511V55.2846L269.675 53.7427H271.065ZM277.209 53.7427V63.1973H275.778V55.1738H275.723L273.461 56.6511V55.2846L275.82 53.7427H277.209ZM279.568 61.3507V60.1966L283.654 53.7427H284.563V55.4416H283.986L281.064 60.0673V60.1412H286.664V61.3507H279.568ZM284.051 63.1973V60.9998L284.06 60.4735V53.7427H285.413V63.1973H284.051ZM288.074 61.3507V60.1966L292.16 53.7427H293.069V55.4416H292.492L289.57 60.0673V60.1412H295.17V61.3507H288.074ZM292.557 63.1973V60.9998L292.566 60.4735V53.7427H293.919V63.1973H292.557ZM300.07 63.3542C299.341 63.3511 298.718 63.1588 298.2 62.7772C297.683 62.3955 297.288 61.84 297.014 61.1106C296.74 60.3812 296.603 59.5025 296.603 58.4746C296.603 57.4498 296.74 56.5742 297.014 55.8478C297.291 55.1215 297.688 54.5675 298.205 54.1859C298.725 53.8043 299.347 53.6135 300.07 53.6135C300.793 53.6135 301.414 53.8058 301.931 54.1905C302.448 54.5721 302.843 55.1261 303.117 55.8525C303.394 56.5757 303.532 57.4498 303.532 58.4746C303.532 59.5056 303.396 60.3858 303.122 61.1152C302.848 61.8416 302.452 62.3971 301.935 62.7818C301.418 63.1634 300.796 63.3542 300.07 63.3542ZM300.07 62.1216C300.71 62.1216 301.21 61.8092 301.57 61.1845C301.934 60.5597 302.115 59.6564 302.115 58.4746C302.115 57.6898 302.032 57.0266 301.866 56.4849C301.703 55.9402 301.467 55.5278 301.16 55.2477C300.855 54.9645 300.492 54.823 300.07 54.823C299.433 54.823 298.933 55.1369 298.57 55.7647C298.207 56.3926 298.023 57.2959 298.02 58.4746C298.02 59.2625 298.102 59.9288 298.265 60.4735C298.431 61.0152 298.667 61.4261 298.971 61.7061C299.276 61.9831 299.642 62.1216 300.07 62.1216ZM306.642 61.9047L306.572 62.4078C306.526 62.7772 306.448 63.1619 306.337 63.562C306.229 63.9651 306.117 64.3391 306 64.6838C305.886 65.0285 305.792 65.3024 305.718 65.5055H304.74C304.78 65.3147 304.835 65.0562 304.906 64.7299C304.977 64.4068 305.046 64.0452 305.114 63.6451C305.181 63.245 305.232 62.8372 305.266 62.4217L305.312 61.9047H306.642ZM313.416 53.7427V63.1973H311.99V53.7427H313.416ZM316.763 58.987V63.1973H315.383V56.1064H316.708V57.2605H316.796C316.959 56.885 317.214 56.5834 317.562 56.3556C317.913 56.1279 318.354 56.014 318.887 56.014C319.37 56.014 319.793 56.1156 320.156 56.3187C320.52 56.5188 320.801 56.8173 321.001 57.2143C321.201 57.6113 321.301 58.1022 321.301 58.687V63.1973H319.921V58.8532C319.921 58.3392 319.787 57.9376 319.519 57.6483C319.252 57.3559 318.884 57.2097 318.416 57.2097C318.096 57.2097 317.811 57.2789 317.562 57.4174C317.316 57.5559 317.12 57.7591 316.976 58.0268C316.834 58.2915 316.763 58.6116 316.763 58.987ZM325.807 63.3358C325.235 63.3358 324.724 63.1896 324.274 62.8972C323.828 62.6017 323.477 62.1816 323.222 61.6369C322.969 61.0891 322.843 60.432 322.843 59.6657C322.843 58.8993 322.971 58.2438 323.226 57.699C323.485 57.1543 323.839 56.7373 324.288 56.448C324.738 56.1587 325.247 56.014 325.816 56.014C326.256 56.014 326.61 56.0879 326.878 56.2356C327.149 56.3803 327.358 56.5495 327.506 56.7434C327.657 56.9373 327.774 57.1081 327.857 57.2559H327.94V53.7427H329.32V63.1973H327.972V62.0939H327.857C327.774 62.2447 327.654 62.4171 327.497 62.611C327.343 62.8049 327.13 62.9741 326.86 63.1188C326.589 63.2634 326.238 63.3358 325.807 63.3358ZM326.112 62.1586C326.509 62.1586 326.844 62.0539 327.118 61.8446C327.395 61.6323 327.604 61.3384 327.746 60.9629C327.891 60.5874 327.963 60.1504 327.963 59.6518C327.963 59.1594 327.892 58.7285 327.751 58.3592C327.609 57.9899 327.401 57.7021 327.127 57.4959C326.853 57.2897 326.515 57.1866 326.112 57.1866C325.696 57.1866 325.35 57.2943 325.073 57.5098C324.796 57.7252 324.587 58.0191 324.445 58.3915C324.307 58.7639 324.237 59.184 324.237 59.6518C324.237 60.1258 324.308 60.552 324.45 60.9306C324.591 61.3091 324.801 61.6092 325.078 61.8308C325.358 62.0493 325.702 62.1586 326.112 62.1586ZM334.277 63.3404C333.612 63.3404 333.032 63.188 332.537 62.8833C332.041 62.5787 331.656 62.1524 331.383 61.6046C331.109 61.0568 330.972 60.4166 330.972 59.6841C330.972 58.9486 331.109 58.3053 331.383 57.7544C331.656 57.2035 332.041 56.7757 332.537 56.4711C333.032 56.1664 333.612 56.014 334.277 56.014C334.942 56.014 335.522 56.1664 336.017 56.4711C336.513 56.7757 336.898 57.2035 337.172 57.7544C337.446 58.3053 337.582 58.9486 337.582 59.6841C337.582 60.4166 337.446 61.0568 337.172 61.6046C336.898 62.1524 336.513 62.5787 336.017 62.8833C335.522 63.188 334.942 63.3404 334.277 63.3404ZM334.282 62.1816C334.713 62.1816 335.07 62.0678 335.353 61.84C335.636 61.6123 335.845 61.3091 335.981 60.9306C336.119 60.552 336.188 60.135 336.188 59.6795C336.188 59.2271 336.119 58.8116 335.981 58.4331C335.845 58.0514 335.636 57.7452 335.353 57.5144C335.07 57.2836 334.713 57.1681 334.282 57.1681C333.848 57.1681 333.488 57.2836 333.201 57.5144C332.918 57.7452 332.707 58.0514 332.569 58.4331C332.434 58.8116 332.366 59.2271 332.366 59.6795C332.366 60.135 332.434 60.552 332.569 60.9306C332.707 61.3091 332.918 61.6123 333.201 61.84C333.488 62.0678 333.848 62.1816 334.282 62.1816ZM340.504 58.987V63.1973H339.123V56.1064H340.448V57.2605H340.536C340.699 56.885 340.954 56.5834 341.302 56.3556C341.653 56.1279 342.095 56.014 342.627 56.014C343.11 56.014 343.533 56.1156 343.897 56.3187C344.26 56.5188 344.541 56.8173 344.741 57.2143C344.942 57.6113 345.042 58.1022 345.042 58.687V63.1973H343.661V58.8532C343.661 58.3392 343.527 57.9376 343.26 57.6483C342.992 57.3559 342.624 57.2097 342.156 57.2097C341.836 57.2097 341.551 57.2789 341.302 57.4174C341.056 57.5559 340.861 57.7591 340.716 58.0268C340.574 58.2915 340.504 58.6116 340.504 58.987ZM349.949 63.3404C349.25 63.3404 348.649 63.1911 348.144 62.8926C347.642 62.591 347.254 62.1678 346.98 61.623C346.71 61.0752 346.574 60.4335 346.574 59.698C346.574 58.9716 346.71 58.3315 346.98 57.7775C347.254 57.2235 347.636 56.7911 348.125 56.4803C348.618 56.1694 349.193 56.014 349.852 56.014C350.252 56.014 350.64 56.0802 351.015 56.2125C351.391 56.3449 351.728 56.5526 352.026 56.8358C352.325 57.1189 352.56 57.4867 352.733 57.9391C352.905 58.3884 352.991 58.9347 352.991 59.5779V60.0673H347.354V59.0332H351.638C351.638 58.67 351.565 58.3484 351.417 58.0684C351.269 57.7852 351.061 57.5621 350.794 57.399C350.529 57.2359 350.218 57.1543 349.861 57.1543C349.473 57.1543 349.135 57.2497 348.846 57.4405C348.559 57.6283 348.338 57.8745 348.181 58.1792C348.027 58.4808 347.95 58.8085 347.95 59.1625V59.9703C347.95 60.4443 348.033 60.8475 348.199 61.1799C348.368 61.5123 348.604 61.7662 348.906 61.9416C349.207 62.1139 349.56 62.2001 349.963 62.2001C350.224 62.2001 350.463 62.1632 350.678 62.0893C350.894 62.0124 351.08 61.8985 351.237 61.7477C351.394 61.5969 351.514 61.4107 351.597 61.1891L352.903 61.4245C352.799 61.8092 352.611 62.1462 352.34 62.4355C352.072 62.7218 351.735 62.9449 351.329 63.1049C350.926 63.2619 350.466 63.3404 349.949 63.3404ZM359.836 57.8375L358.585 58.0591C358.533 57.8991 358.45 57.7467 358.336 57.6021C358.225 57.4574 358.074 57.339 357.883 57.2466C357.693 57.1543 357.454 57.1081 357.168 57.1081C356.777 57.1081 356.451 57.1958 356.189 57.3713C355.928 57.5436 355.797 57.7667 355.797 58.0407C355.797 58.2776 355.884 58.4685 356.06 58.6131C356.235 58.7578 356.518 58.8762 356.909 58.9686L358.036 59.2271C358.688 59.3779 359.175 59.6103 359.495 59.9242C359.815 60.2381 359.975 60.6459 359.975 61.1475C359.975 61.5723 359.852 61.9508 359.605 62.2832C359.362 62.6125 359.022 62.871 358.585 63.0588C358.151 63.2465 357.648 63.3404 357.076 63.3404C356.282 63.3404 355.634 63.1711 355.132 62.8326C354.63 62.4909 354.323 62.0062 354.209 61.3784L355.543 61.1752C355.626 61.523 355.797 61.7862 356.055 61.9647C356.314 62.1401 356.651 62.2278 357.066 62.2278C357.519 62.2278 357.88 62.1339 358.151 61.9462C358.422 61.7554 358.557 61.523 358.557 61.2491C358.557 61.0275 358.474 60.8413 358.308 60.6905C358.145 60.5397 357.894 60.4258 357.556 60.3489L356.355 60.0858C355.694 59.935 355.204 59.6949 354.887 59.3656C354.573 59.0363 354.416 58.6193 354.416 58.1145C354.416 57.696 354.533 57.3297 354.767 57.0158C355.001 56.7019 355.324 56.4572 355.737 56.2818C356.149 56.1033 356.622 56.014 357.154 56.014C357.92 56.014 358.524 56.1802 358.964 56.5126C359.404 56.8419 359.695 57.2836 359.836 57.8375ZM361.492 63.1973V56.1064H362.873V63.1973H361.492ZM362.189 55.0123C361.949 55.0123 361.743 54.9322 361.571 54.7722C361.402 54.6091 361.317 54.4152 361.317 54.1905C361.317 53.9628 361.402 53.7689 361.571 53.6088C361.743 53.4457 361.949 53.3642 362.189 53.3642C362.43 53.3642 362.634 53.4457 362.803 53.6088C362.976 53.7689 363.062 53.9628 363.062 54.1905C363.062 54.4152 362.976 54.6091 362.803 54.7722C362.634 54.9322 362.43 55.0123 362.189 55.0123ZM366.793 63.3542C366.344 63.3542 365.938 63.2711 365.574 63.1049C365.211 62.9357 364.924 62.691 364.711 62.3709C364.502 62.0508 364.397 61.6584 364.397 61.1937C364.397 60.7936 364.474 60.4643 364.628 60.2058C364.782 59.9473 364.99 59.7426 365.251 59.5918C365.513 59.441 365.805 59.3271 366.128 59.2502C366.452 59.1732 366.781 59.1148 367.116 59.0748C367.541 59.0255 367.886 58.9855 368.15 58.9547C368.415 58.9209 368.608 58.867 368.728 58.7931C368.848 58.7193 368.908 58.5993 368.908 58.4331V58.4007C368.908 57.9976 368.794 57.6852 368.566 57.4636C368.341 57.242 368.006 57.1312 367.56 57.1312C367.095 57.1312 366.729 57.2343 366.461 57.4405C366.196 57.6436 366.013 57.8699 365.911 58.1191L364.614 57.8237C364.768 57.3928 364.993 57.045 365.288 56.7804C365.587 56.5126 365.93 56.3187 366.318 56.1987C366.706 56.0756 367.113 56.014 367.541 56.014C367.824 56.014 368.124 56.0479 368.441 56.1156C368.761 56.1802 369.06 56.3002 369.337 56.4757C369.617 56.6511 369.846 56.9019 370.025 57.2282C370.203 57.5513 370.293 57.9714 370.293 58.4885V63.1973H368.945V62.2278H368.889C368.8 62.4063 368.666 62.5817 368.487 62.7541C368.309 62.9264 368.08 63.0695 367.8 63.1834C367.52 63.2973 367.184 63.3542 366.793 63.3542ZM367.093 62.2463C367.475 62.2463 367.801 62.1709 368.072 62.0201C368.346 61.8693 368.554 61.6723 368.695 61.4292C368.84 61.1829 368.912 60.9198 368.912 60.6397V59.7257C368.863 59.7749 368.768 59.8211 368.626 59.8642C368.487 59.9042 368.329 59.9396 368.15 59.9703C367.972 59.998 367.798 60.0242 367.629 60.0488C367.46 60.0704 367.318 60.0888 367.204 60.1042C366.936 60.1381 366.692 60.195 366.47 60.275C366.252 60.3551 366.076 60.4705 365.944 60.6213C365.815 60.769 365.75 60.966 365.75 61.2122C365.75 61.5538 365.876 61.8123 366.128 61.9877C366.381 62.1601 366.702 62.2463 367.093 62.2463ZM373.04 63.285C372.788 63.285 372.571 63.1957 372.39 63.0172C372.208 62.8356 372.117 62.6171 372.117 62.3617C372.117 62.1093 372.208 61.8939 372.39 61.7154C372.571 61.5338 372.788 61.443 373.04 61.443C373.293 61.443 373.51 61.5338 373.691 61.7154C373.873 61.8939 373.964 62.1093 373.964 62.3617C373.964 62.531 373.921 62.6864 373.835 62.8279C373.751 62.9664 373.641 63.0772 373.502 63.1603C373.364 63.2434 373.21 63.285 373.04 63.285ZM379.212 63.1973V53.7427H382.582C383.317 53.7427 383.927 53.8766 384.41 54.1444C384.893 54.4121 385.255 54.7783 385.495 55.2431C385.735 55.7047 385.855 56.2248 385.855 56.8034C385.855 57.3851 385.733 57.9083 385.49 58.373C385.25 58.8347 384.887 59.2009 384.4 59.4718C383.917 59.7395 383.309 59.8734 382.577 59.8734H380.259V58.6639H382.448C382.912 58.6639 383.289 58.5839 383.579 58.4238C383.868 58.2607 384.08 58.0391 384.216 57.7591C384.351 57.479 384.419 57.1605 384.419 56.8034C384.419 56.4464 384.351 56.1294 384.216 55.8525C384.08 55.5755 383.867 55.3585 383.574 55.2015C383.285 55.0446 382.903 54.9661 382.429 54.9661H380.638V63.1973H379.212ZM388.797 58.987V63.1973H387.416V53.7427H388.778V57.2605H388.866C389.032 56.8788 389.286 56.5757 389.627 56.351C389.969 56.1264 390.415 56.014 390.966 56.014C391.453 56.014 391.877 56.1141 392.24 56.3141C392.607 56.5141 392.89 56.8127 393.09 57.2097C393.293 57.6036 393.395 58.0961 393.395 58.687V63.1973H392.014V58.8532C392.014 58.333 391.88 57.9299 391.613 57.6436C391.345 57.3543 390.972 57.2097 390.495 57.2097C390.169 57.2097 389.877 57.2789 389.618 57.4174C389.363 57.5559 389.161 57.7591 389.013 58.0268C388.869 58.2915 388.797 58.6116 388.797 58.987ZM398.223 63.3404C397.559 63.3404 396.978 63.188 396.483 62.8833C395.987 62.5787 395.603 62.1524 395.329 61.6046C395.055 61.0568 394.918 60.4166 394.918 59.6841C394.918 58.9486 395.055 58.3053 395.329 57.7544C395.603 57.2035 395.987 56.7757 396.483 56.4711C396.978 56.1664 397.559 56.014 398.223 56.014C398.888 56.014 399.468 56.1664 399.964 56.4711C400.459 56.7757 400.844 57.2035 401.118 57.7544C401.392 58.3053 401.529 58.9486 401.529 59.6841C401.529 60.4166 401.392 61.0568 401.118 61.6046C400.844 62.1524 400.459 62.5787 399.964 62.8833C399.468 63.188 398.888 63.3404 398.223 63.3404ZM398.228 62.1816C398.659 62.1816 399.016 62.0678 399.299 61.84C399.582 61.6123 399.791 61.3091 399.927 60.9306C400.065 60.552 400.135 60.135 400.135 59.6795C400.135 59.2271 400.065 58.8116 399.927 58.4331C399.791 58.0514 399.582 57.7452 399.299 57.5144C399.016 57.2836 398.659 57.1681 398.228 57.1681C397.794 57.1681 397.434 57.2836 397.148 57.5144C396.865 57.7452 396.654 58.0514 396.515 58.4331C396.38 58.8116 396.312 59.2271 396.312 59.6795C396.312 60.135 396.38 60.552 396.515 60.9306C396.654 61.3091 396.865 61.6123 397.148 61.84C397.434 62.0678 397.794 62.1816 398.228 62.1816ZM404.45 58.987V63.1973H403.07V56.1064H404.394V57.2605H404.482C404.645 56.885 404.901 56.5834 405.248 56.3556C405.599 56.1279 406.041 56.014 406.573 56.014C407.057 56.014 407.48 56.1156 407.843 56.3187C408.206 56.5188 408.488 56.8173 408.688 57.2143C408.888 57.6113 408.988 58.1022 408.988 58.687V63.1973H407.608V58.8532C407.608 58.3392 407.474 57.9376 407.206 57.6483C406.938 57.3559 406.57 57.2097 406.103 57.2097C405.782 57.2097 405.498 57.2789 405.248 57.4174C405.002 57.5559 404.807 57.7591 404.662 58.0268C404.521 58.2915 404.45 58.6116 404.45 58.987ZM413.895 63.3404C413.197 63.3404 412.595 63.1911 412.09 62.8926C411.588 62.591 411.201 62.1678 410.927 61.623C410.656 61.0752 410.521 60.4335 410.521 59.698C410.521 58.9716 410.656 58.3315 410.927 57.7775C411.201 57.2235 411.582 56.7911 412.072 56.4803C412.564 56.1694 413.14 56.014 413.798 56.014C414.198 56.014 414.586 56.0802 414.962 56.2125C415.337 56.3449 415.674 56.5526 415.973 56.8358C416.271 57.1189 416.507 57.4867 416.679 57.9391C416.851 58.3884 416.937 58.9347 416.937 59.5779V60.0673H411.301V59.0332H415.585C415.585 58.67 415.511 58.3484 415.363 58.0684C415.215 57.7852 415.008 57.5621 414.74 57.399C414.475 57.2359 414.164 57.1543 413.807 57.1543C413.42 57.1543 413.081 57.2497 412.792 57.4405C412.506 57.6283 412.284 57.8745 412.127 58.1792C411.973 58.4808 411.896 58.8085 411.896 59.1625V59.9703C411.896 60.4443 411.979 60.8475 412.146 61.1799C412.315 61.5123 412.55 61.7662 412.852 61.9416C413.153 62.1139 413.506 62.2001 413.909 62.2001C414.171 62.2001 414.409 62.1632 414.625 62.0893C414.84 62.0124 415.026 61.8985 415.183 61.7477C415.34 61.5969 415.46 61.4107 415.543 61.1891L416.85 61.4245C416.745 61.8092 416.557 62.1462 416.286 62.4355C416.019 62.7218 415.682 62.9449 415.275 63.1049C414.872 63.2619 414.412 63.3404 413.895 63.3404ZM419.378 63.285C419.126 63.285 418.909 63.1957 418.727 63.0172C418.546 62.8356 418.455 62.6171 418.455 62.3617C418.455 62.1093 418.546 61.8939 418.727 61.7154C418.909 61.5338 419.126 61.443 419.378 61.443C419.631 61.443 419.848 61.5338 420.029 61.7154C420.211 61.8939 420.302 62.1093 420.302 62.3617C420.302 62.531 420.259 62.6864 420.172 62.8279C420.089 62.9664 419.979 63.0772 419.84 63.1603C419.702 63.2434 419.548 63.285 419.378 63.285ZM425.84 58.47C425.84 57.3128 425.993 56.2479 426.297 55.2754C426.602 54.3029 427.047 53.4057 427.631 52.584H428.896C428.669 52.8887 428.456 53.2626 428.259 53.7058C428.062 54.149 427.89 54.6352 427.742 55.1646C427.595 55.6909 427.479 56.2372 427.396 56.8034C427.313 57.3667 427.271 57.9222 427.271 58.47C427.271 59.2025 427.344 59.9442 427.488 60.6951C427.633 61.4461 427.828 62.1432 428.075 62.7864C428.321 63.4296 428.595 63.9544 428.896 64.3606H427.631C427.047 63.5389 426.602 62.6417 426.297 61.6692C425.993 60.6967 425.84 59.6303 425.84 58.47ZM433.625 63.3542C432.895 63.3511 432.272 63.1588 431.755 62.7772C431.238 62.3955 430.843 61.84 430.569 61.1106C430.295 60.3812 430.158 59.5025 430.158 58.4746C430.158 57.4498 430.295 56.5742 430.569 55.8478C430.846 55.1215 431.243 54.5675 431.76 54.1859C432.28 53.8043 432.902 53.6135 433.625 53.6135C434.348 53.6135 434.968 53.8058 435.485 54.1905C436.002 54.5721 436.398 55.1261 436.672 55.8525C436.949 56.5757 437.087 57.4498 437.087 58.4746C437.087 59.5056 436.95 60.3858 436.676 61.1152C436.402 61.8416 436.007 62.3971 435.49 62.7818C434.973 63.1634 434.351 63.3542 433.625 63.3542ZM433.625 62.1216C434.265 62.1216 434.765 61.8092 435.125 61.1845C435.488 60.5597 435.67 59.6564 435.67 58.4746C435.67 57.6898 435.587 57.0266 435.421 56.4849C435.258 55.9402 435.022 55.5278 434.714 55.2477C434.41 54.9645 434.046 54.823 433.625 54.823C432.988 54.823 432.488 55.1369 432.124 55.7647C431.761 56.3926 431.578 57.2959 431.575 58.4746C431.575 59.2625 431.657 59.9288 431.82 60.4735C431.986 61.0152 432.221 61.4261 432.526 61.7061C432.831 61.9831 433.197 62.1216 433.625 62.1216ZM438.725 63.1973V62.1632L441.924 58.8485C442.266 58.4885 442.547 58.173 442.769 57.9022C442.994 57.6283 443.161 57.3682 443.272 57.122C443.383 56.8758 443.438 56.6142 443.438 56.3372C443.438 56.0233 443.364 55.7524 443.217 55.5247C443.069 55.2939 442.867 55.1169 442.612 54.9938C442.357 54.8676 442.069 54.8045 441.749 54.8045C441.41 54.8045 441.115 54.8738 440.862 55.0123C440.61 55.1507 440.416 55.3462 440.281 55.5985C440.145 55.8509 440.078 56.1464 440.078 56.4849H438.716C438.716 55.9094 438.848 55.4062 439.113 54.9753C439.377 54.5444 439.741 54.2105 440.202 53.9735C440.664 53.7335 441.189 53.6135 441.776 53.6135C442.37 53.6135 442.894 53.7319 443.346 53.9689C443.801 54.2028 444.157 54.5229 444.412 54.9292C444.668 55.3323 444.796 55.7878 444.796 56.2956C444.796 56.6465 444.729 56.9896 444.597 57.3251C444.468 57.6606 444.242 58.0345 443.918 58.4469C443.595 58.8562 443.146 59.3533 442.57 59.938L440.691 61.9047V61.9739H444.948V63.1973H438.725ZM450.285 53.7427V63.1973H448.853V55.1738H448.798L446.536 56.6511V55.2846L448.895 53.7427H450.285ZM455.515 58.47C455.515 59.6303 455.363 60.6967 455.058 61.6692C454.753 62.6417 454.309 63.5389 453.724 64.3606H452.459C452.687 64.0559 452.899 63.682 453.096 63.2388C453.293 62.7956 453.465 62.3109 453.613 61.7846C453.761 61.2553 453.876 60.7074 453.959 60.1412C454.042 59.5749 454.084 59.0178 454.084 58.47C454.084 57.7406 454.012 57.0004 453.867 56.2495C453.722 55.4985 453.527 54.8014 453.281 54.1582C453.034 53.515 452.761 52.9902 452.459 52.584H453.724C454.309 53.4057 454.753 54.3029 455.058 55.2754C455.363 56.2479 455.515 57.3128 455.515 58.47ZM464.316 63.3265C463.738 63.3265 463.218 63.2157 462.756 62.9941C462.297 62.7695 461.931 62.4617 461.657 62.0708C461.383 61.68 461.237 61.2337 461.219 60.7321H462.604C462.637 61.1383 462.818 61.4722 463.144 61.7338C463.47 61.9954 463.861 62.1262 464.316 62.1262C464.679 62.1262 465.001 62.0431 465.281 61.877C465.564 61.7077 465.786 61.4753 465.946 61.1799C466.109 60.8844 466.191 60.5474 466.191 60.1689C466.191 59.7842 466.108 59.441 465.941 59.1394C465.775 58.8378 465.546 58.6008 465.253 58.4284C464.964 58.2561 464.632 58.1684 464.256 58.1653C463.97 58.1653 463.682 58.2145 463.393 58.313C463.104 58.4115 462.87 58.5408 462.691 58.7008L461.385 58.5069L461.916 53.7427H467.114V54.9661H463.102L462.802 57.6113H462.858C463.042 57.4328 463.287 57.2836 463.592 57.1635C463.899 57.0435 464.229 56.9835 464.579 56.9835C465.155 56.9835 465.667 57.1204 466.117 57.3944C466.569 57.6683 466.925 58.0422 467.183 58.5162C467.445 58.987 467.574 59.5287 467.571 60.1412C467.574 60.7536 467.436 61.2999 467.155 61.78C466.878 62.2601 466.494 62.6387 466.001 62.9157C465.512 63.1896 464.95 63.3265 464.316 63.3265ZM472.558 63.3265C472.136 63.3204 471.721 63.2434 471.311 63.0957C470.905 62.948 470.536 62.7018 470.203 62.3571C469.871 62.0124 469.605 61.5492 469.405 60.9675C469.208 60.3858 469.109 59.6595 469.109 58.7885C469.109 57.9637 469.191 57.2312 469.354 56.5911C469.52 55.9509 469.759 55.4108 470.07 54.9707C470.38 54.5275 470.756 54.1905 471.196 53.9597C471.636 53.7289 472.13 53.6135 472.678 53.6135C473.241 53.6135 473.741 53.7243 474.178 53.9458C474.615 54.1674 474.969 54.4737 475.24 54.8645C475.514 55.2554 475.688 55.7001 475.762 56.1987H474.354C474.258 55.8047 474.069 55.4831 473.786 55.2338C473.503 54.9846 473.133 54.8599 472.678 54.8599C471.985 54.8599 471.445 55.1615 471.058 55.7647C470.673 56.368 470.479 57.2066 470.476 58.2807H470.545C470.708 58.013 470.908 57.7852 471.145 57.5975C471.385 57.4067 471.653 57.2605 471.949 57.1589C472.247 57.0543 472.561 57.002 472.89 57.002C473.438 57.002 473.934 57.1358 474.377 57.4036C474.823 57.6683 475.179 58.0345 475.443 58.5023C475.708 58.9701 475.84 59.5056 475.84 60.1088C475.84 60.7121 475.703 61.2583 475.429 61.7477C475.158 62.237 474.777 62.6248 474.284 62.911C473.792 63.1942 473.217 63.3327 472.558 63.3265ZM472.553 62.1262C472.916 62.1262 473.241 62.037 473.527 61.8585C473.814 61.68 474.04 61.4399 474.206 61.1383C474.372 60.8367 474.455 60.4997 474.455 60.1273C474.455 59.7641 474.374 59.4333 474.211 59.1348C474.051 58.8362 473.829 58.5993 473.546 58.4238C473.266 58.2484 472.946 58.1607 472.586 58.1607C472.312 58.1607 472.058 58.213 471.824 58.3176C471.593 58.4223 471.39 58.5669 471.214 58.7516C471.039 58.9363 470.901 59.1486 470.799 59.3887C470.701 59.6257 470.651 59.8765 470.651 60.1412C470.651 60.4951 470.733 60.8229 470.896 61.1245C471.062 61.4261 471.288 61.6692 471.575 61.8539C471.864 62.0355 472.19 62.1262 472.553 62.1262ZM480.823 63.3265C480.401 63.3204 479.985 63.2434 479.576 63.0957C479.17 62.948 478.801 62.7018 478.468 62.3571C478.136 62.0124 477.87 61.5492 477.669 60.9675C477.473 60.3858 477.374 59.6595 477.374 58.7885C477.374 57.9637 477.456 57.2312 477.619 56.5911C477.785 55.9509 478.023 55.4108 478.334 54.9707C478.645 54.5275 479.021 54.1905 479.461 53.9597C479.901 53.7289 480.395 53.6135 480.943 53.6135C481.506 53.6135 482.006 53.7243 482.443 53.9458C482.88 54.1674 483.234 54.4737 483.505 54.8645C483.779 55.2554 483.953 55.7001 484.026 56.1987H482.618C482.523 55.8047 482.334 55.4831 482.051 55.2338C481.767 54.9846 481.398 54.8599 480.943 54.8599C480.25 54.8599 479.71 55.1615 479.322 55.7647C478.937 56.368 478.744 57.2066 478.741 58.2807H478.81C478.973 58.013 479.173 57.7852 479.41 57.5975C479.65 57.4067 479.918 57.2605 480.213 57.1589C480.512 57.0543 480.826 57.002 481.155 57.002C481.703 57.002 482.198 57.1358 482.641 57.4036C483.088 57.6683 483.443 58.0345 483.708 58.5023C483.973 58.9701 484.105 59.5056 484.105 60.1088C484.105 60.7121 483.968 61.2583 483.694 61.7477C483.423 62.237 483.042 62.6248 482.549 62.911C482.057 63.1942 481.481 63.3327 480.823 63.3265ZM480.818 62.1262C481.181 62.1262 481.506 62.037 481.792 61.8585C482.078 61.68 482.304 61.4399 482.471 61.1383C482.637 60.8367 482.72 60.4997 482.72 60.1273C482.72 59.7641 482.638 59.4333 482.475 59.1348C482.315 58.8362 482.094 58.5993 481.81 58.4238C481.53 58.2484 481.21 58.1607 480.85 58.1607C480.576 58.1607 480.322 58.213 480.089 58.3176C479.858 58.4223 479.655 58.5669 479.479 58.7516C479.304 58.9363 479.165 59.1486 479.064 59.3887C478.965 59.6257 478.916 59.8765 478.916 60.1412C478.916 60.4951 478.997 60.8229 479.161 61.1245C479.327 61.4261 479.553 61.6692 479.839 61.8539C480.129 62.0355 480.455 62.1262 480.818 62.1262ZM488.907 63.3265C488.329 63.3265 487.808 63.2157 487.347 62.9941C486.888 62.7695 486.522 62.4617 486.248 62.0708C485.974 61.68 485.828 61.2337 485.809 60.7321H487.194C487.228 61.1383 487.408 61.4722 487.735 61.7338C488.061 61.9954 488.452 62.1262 488.907 62.1262C489.27 62.1262 489.592 62.0431 489.872 61.877C490.155 61.7077 490.377 61.4753 490.537 61.1799C490.7 60.8844 490.781 60.5474 490.781 60.1689C490.781 59.7842 490.698 59.441 490.532 59.1394C490.366 58.8378 490.137 58.6008 489.844 58.4284C489.555 58.2561 489.223 58.1684 488.847 58.1653C488.561 58.1653 488.273 58.2145 487.984 58.313C487.695 58.4115 487.461 58.5408 487.282 58.7008L485.976 58.5069L486.507 53.7427H491.705V54.9661H487.693L487.393 57.6113H487.448C487.633 57.4328 487.878 57.2836 488.182 57.1635C488.49 57.0435 488.819 56.9835 489.17 56.9835C489.746 56.9835 490.258 57.1204 490.708 57.3944C491.16 57.6683 491.515 58.0422 491.774 58.5162C492.036 58.987 492.165 59.5287 492.162 60.1412C492.165 60.7536 492.026 61.2999 491.746 61.78C491.469 62.2601 491.085 62.6387 490.592 62.9157C490.103 63.1896 489.541 63.3265 488.907 63.3265ZM493.848 63.1973V62.1632L497.047 58.8485C497.389 58.4885 497.67 58.173 497.892 57.9022C498.117 57.6283 498.284 57.3682 498.395 57.122C498.506 56.8758 498.561 56.6142 498.561 56.3372C498.561 56.0233 498.487 55.7524 498.34 55.5247C498.192 55.2939 497.99 55.1169 497.735 54.9938C497.48 54.8676 497.192 54.8045 496.872 54.8045C496.533 54.8045 496.238 54.8738 495.985 55.0123C495.733 55.1507 495.539 55.3462 495.404 55.5985C495.268 55.8509 495.201 56.1464 495.201 56.4849H493.839C493.839 55.9094 493.971 55.4062 494.236 54.9753C494.5 54.5444 494.864 54.2105 495.325 53.9735C495.787 53.7335 496.312 53.6135 496.899 53.6135C497.493 53.6135 498.017 53.7319 498.469 53.9689C498.925 54.2028 499.28 54.5229 499.535 54.9292C499.791 55.3323 499.919 55.7878 499.919 56.2956C499.919 56.6465 499.852 56.9896 499.72 57.3251C499.591 57.6606 499.365 58.0345 499.041 58.4469C498.718 58.8562 498.269 59.3533 497.693 59.938L495.815 61.9047V61.9739H500.071V63.1973H493.848ZM505.121 63.3265C504.7 63.3204 504.284 63.2434 503.875 63.0957C503.469 62.948 503.099 62.7018 502.767 62.3571C502.435 62.0124 502.168 61.5492 501.968 60.9675C501.771 60.3858 501.673 59.6595 501.673 58.7885C501.673 57.9637 501.754 57.2312 501.918 56.5911C502.084 55.9509 502.322 55.4108 502.633 54.9707C502.944 54.5275 503.319 54.1905 503.759 53.9597C504.2 53.7289 504.694 53.6135 505.241 53.6135C505.805 53.6135 506.305 53.7243 506.742 53.9458C507.179 54.1674 507.533 54.4737 507.804 54.8645C508.077 55.2554 508.251 55.7001 508.325 56.1987H506.917C506.822 55.8047 506.632 55.4831 506.349 55.2338C506.066 54.9846 505.697 54.8599 505.241 54.8599C504.549 54.8599 504.009 55.1615 503.621 55.7647C503.236 56.368 503.042 57.2066 503.039 58.2807H503.109C503.272 58.013 503.472 57.7852 503.709 57.5975C503.949 57.4067 504.217 57.2605 504.512 57.1589C504.811 57.0543 505.124 57.002 505.454 57.002C506.002 57.002 506.497 57.1358 506.94 57.4036C507.387 57.6683 507.742 58.0345 508.007 58.5023C508.271 58.9701 508.404 59.5056 508.404 60.1088C508.404 60.7121 508.267 61.2583 507.993 61.7477C507.722 62.237 507.34 62.6248 506.848 62.911C506.355 63.1942 505.78 63.3327 505.121 63.3265ZM505.117 62.1262C505.48 62.1262 505.805 62.037 506.091 61.8585C506.377 61.68 506.603 61.4399 506.769 61.1383C506.936 60.8367 507.019 60.4997 507.019 60.1273C507.019 59.7641 506.937 59.4333 506.774 59.1348C506.614 58.8362 506.392 58.5993 506.109 58.4238C505.829 58.2484 505.509 58.1607 505.149 58.1607C504.875 58.1607 504.621 58.213 504.387 58.3176C504.157 58.4223 503.953 58.5669 503.778 58.7516C503.603 58.9363 503.464 59.1486 503.362 59.3887C503.264 59.6257 503.215 59.8765 503.215 60.1412C503.215 60.4951 503.296 60.8229 503.459 61.1245C503.626 61.4261 503.852 61.6692 504.138 61.8539C504.427 62.0355 504.754 62.1262 505.117 62.1262ZM510.085 63.1973V62.1632L513.284 58.8485C513.626 58.4885 513.908 58.173 514.129 57.9022C514.354 57.6283 514.522 57.3682 514.632 57.122C514.743 56.8758 514.799 56.6142 514.799 56.3372C514.799 56.0233 514.725 55.7524 514.577 55.5247C514.429 55.2939 514.228 55.1169 513.972 54.9938C513.717 54.8676 513.429 54.8045 513.109 54.8045C512.77 54.8045 512.475 54.8738 512.223 55.0123C511.97 55.1507 511.776 55.3462 511.641 55.5985C511.506 55.8509 511.438 56.1464 511.438 56.4849H510.076C510.076 55.9094 510.208 55.4062 510.473 54.9753C510.738 54.5444 511.101 54.2105 511.562 53.9735C512.024 53.7335 512.549 53.6135 513.137 53.6135C513.731 53.6135 514.254 53.7319 514.706 53.9689C515.162 54.2028 515.517 54.5229 515.773 54.9292C516.028 55.3323 516.156 55.7878 516.156 56.2956C516.156 56.6465 516.09 56.9896 515.957 57.3251C515.828 57.6606 515.602 58.0345 515.279 58.4469C514.956 58.8562 514.506 59.3533 513.931 59.938L512.052 61.9047V61.9739H516.308V63.1973H510.085ZM519.872 61.9047L519.803 62.4078C519.757 62.7772 519.678 63.1619 519.567 63.562C519.46 63.9651 519.347 64.3391 519.23 64.6838C519.117 65.0285 519.023 65.3024 518.949 65.5055H517.97C518.01 65.3147 518.066 65.0562 518.136 64.7299C518.207 64.4068 518.276 64.0452 518.344 63.6451C518.412 63.245 518.463 62.8372 518.496 62.4217L518.543 61.9047H519.872ZM528.212 63.3265C527.633 63.3265 527.113 63.2157 526.651 62.9941C526.193 62.7695 525.827 62.4617 525.553 62.0708C525.279 61.68 525.133 61.2337 525.114 60.7321H526.499C526.533 61.1383 526.713 61.4722 527.039 61.7338C527.365 61.9954 527.756 62.1262 528.212 62.1262C528.575 62.1262 528.897 62.0431 529.177 61.877C529.46 61.7077 529.681 61.4753 529.841 61.1799C530.005 60.8844 530.086 60.5474 530.086 60.1689C530.086 59.7842 530.003 59.441 529.837 59.1394C529.671 58.8378 529.441 58.6008 529.149 58.4284C528.86 58.2561 528.527 58.1684 528.152 58.1653C527.866 58.1653 527.578 58.2145 527.289 58.313C526.999 58.4115 526.765 58.5408 526.587 58.7008L525.28 58.5069L525.811 53.7427H531.009V54.9661H526.998L526.698 57.6113H526.753C526.938 57.4328 527.182 57.2836 527.487 57.1635C527.795 57.0435 528.124 56.9835 528.475 56.9835C529.05 56.9835 529.563 57.1204 530.012 57.3944C530.465 57.6683 530.82 58.0422 531.079 58.5162C531.34 58.987 531.47 59.5287 531.466 60.1412C531.47 60.7536 531.331 61.2999 531.051 61.78C530.774 62.2601 530.389 62.6387 529.897 62.9157C529.407 63.1896 528.846 63.3265 528.212 63.3265ZM536.453 63.3265C536.032 63.3204 535.616 63.2434 535.207 63.0957C534.801 62.948 534.431 62.7018 534.099 62.3571C533.767 62.0124 533.5 61.5492 533.3 60.9675C533.103 60.3858 533.005 59.6595 533.005 58.7885C533.005 57.9637 533.086 57.2312 533.25 56.5911C533.416 55.9509 533.654 55.4108 533.965 54.9707C534.276 54.5275 534.651 54.1905 535.092 53.9597C535.532 53.7289 536.026 53.6135 536.573 53.6135C537.137 53.6135 537.637 53.7243 538.074 53.9458C538.511 54.1674 538.865 54.4737 539.136 54.8645C539.409 55.2554 539.583 55.7001 539.657 56.1987H538.249C538.154 55.8047 537.965 55.4831 537.681 55.2338C537.398 54.9846 537.029 54.8599 536.573 54.8599C535.881 54.8599 535.341 55.1615 534.953 55.7647C534.568 56.368 534.374 57.2066 534.371 58.2807H534.441C534.604 58.013 534.804 57.7852 535.041 57.5975C535.281 57.4067 535.549 57.2605 535.844 57.1589C536.143 57.0543 536.456 57.002 536.786 57.002C537.334 57.002 537.829 57.1358 538.272 57.4036C538.719 57.6683 539.074 58.0345 539.339 58.5023C539.603 58.9701 539.736 59.5056 539.736 60.1088C539.736 60.7121 539.599 61.2583 539.325 61.7477C539.054 62.237 538.672 62.6248 538.18 62.911C537.688 63.1942 537.112 63.3327 536.453 63.3265ZM536.449 62.1262C536.812 62.1262 537.137 62.037 537.423 61.8585C537.709 61.68 537.935 61.4399 538.101 61.1383C538.268 60.8367 538.351 60.4997 538.351 60.1273C538.351 59.7641 538.269 59.4333 538.106 59.1348C537.946 58.8362 537.724 58.5993 537.441 58.4238C537.161 58.2484 536.841 58.1607 536.481 58.1607C536.207 58.1607 535.953 58.213 535.719 58.3176C535.489 58.4223 535.285 58.5669 535.11 58.7516C534.935 58.9363 534.796 59.1486 534.695 59.3887C534.596 59.6257 534.547 59.8765 534.547 60.1412C534.547 60.4951 534.628 60.8229 534.791 61.1245C534.958 61.4261 535.184 61.6692 535.47 61.8539C535.759 62.0355 536.086 62.1262 536.449 62.1262ZM544.709 63.3265C544.075 63.3265 543.509 63.2173 543.01 62.9988C542.514 62.7802 542.122 62.4771 541.833 62.0893C541.547 61.6984 541.393 61.246 541.371 60.7321H542.821C542.839 61.0121 542.933 61.2553 543.102 61.4615C543.275 61.6646 543.499 61.8216 543.776 61.9324C544.053 62.0431 544.361 62.0985 544.7 62.0985C545.072 62.0985 545.401 62.0339 545.688 61.9047C545.977 61.7754 546.203 61.5953 546.366 61.3645C546.529 61.1306 546.611 60.8613 546.611 60.5566C546.611 60.2396 546.529 59.9611 546.366 59.7211C546.206 59.4779 545.971 59.2871 545.66 59.1486C545.352 59.0101 544.98 58.9409 544.543 58.9409H543.744V57.7775H544.543C544.893 57.7775 545.201 57.7144 545.466 57.5882C545.734 57.4621 545.943 57.2866 546.094 57.062C546.245 56.8342 546.32 56.568 546.32 56.2633C546.32 55.9709 546.254 55.717 546.121 55.5016C545.992 55.2831 545.808 55.1123 545.567 54.9892C545.33 54.8661 545.05 54.8045 544.727 54.8045C544.42 54.8045 544.132 54.8614 543.864 54.9753C543.599 55.0861 543.384 55.2462 543.218 55.4554C543.051 55.6616 542.962 55.9094 542.95 56.1987H541.57C541.585 55.6878 541.736 55.2385 542.022 54.8507C542.311 54.4629 542.693 54.1597 543.167 53.9412C543.641 53.7227 544.167 53.6135 544.746 53.6135C545.352 53.6135 545.875 53.7319 546.315 53.9689C546.759 54.2028 547.1 54.5152 547.34 54.9061C547.583 55.2969 547.703 55.7247 547.7 56.1895C547.703 56.7188 547.556 57.1681 547.257 57.5375C546.962 57.9068 546.568 58.1545 546.075 58.2807V58.3546C546.703 58.45 547.189 58.6993 547.534 59.1025C547.882 59.5056 548.054 60.0057 548.051 60.6028C548.054 61.1229 547.91 61.5892 547.617 62.0016C547.328 62.414 546.932 62.7387 546.431 62.9757C545.929 63.2096 545.355 63.3265 544.709 63.3265ZM553.088 63.3265C552.454 63.3265 551.887 63.2173 551.389 62.9988C550.893 62.7802 550.501 62.4771 550.212 62.0893C549.925 61.6984 549.772 61.246 549.75 60.7321H551.2C551.218 61.0121 551.312 61.2553 551.481 61.4615C551.654 61.6646 551.878 61.8216 552.155 61.9324C552.432 62.0431 552.74 62.0985 553.078 62.0985C553.451 62.0985 553.78 62.0339 554.066 61.9047C554.356 61.7754 554.582 61.5953 554.745 61.3645C554.908 61.1306 554.99 60.8613 554.99 60.5566C554.99 60.2396 554.908 59.9611 554.745 59.7211C554.585 59.4779 554.35 59.2871 554.039 59.1486C553.731 59.0101 553.359 58.9409 552.922 58.9409H552.123V57.7775H552.922C553.272 57.7775 553.58 57.7144 553.845 57.5882C554.113 57.4621 554.322 57.2866 554.473 57.062C554.623 56.8342 554.699 56.568 554.699 56.2633C554.699 55.9709 554.633 55.717 554.5 55.5016C554.371 55.2831 554.186 55.1123 553.946 54.9892C553.709 54.8661 553.429 54.8045 553.106 54.8045C552.798 54.8045 552.511 54.8614 552.243 54.9753C551.978 55.0861 551.763 55.2462 551.597 55.4554C551.43 55.6616 551.341 55.9094 551.329 56.1987H549.949C549.964 55.6878 550.115 55.2385 550.401 54.8507C550.69 54.4629 551.072 54.1597 551.546 53.9412C552.02 53.7227 552.546 53.6135 553.125 53.6135C553.731 53.6135 554.254 53.7319 554.694 53.9689C555.137 54.2028 555.479 54.5152 555.719 54.9061C555.962 55.2969 556.082 55.7247 556.079 56.1895C556.082 56.7188 555.935 57.1681 555.636 57.5375C555.341 57.9068 554.947 58.1545 554.454 58.2807V58.3546C555.082 58.45 555.568 58.6993 555.913 59.1025C556.261 59.5056 556.433 60.0057 556.43 60.6028C556.433 61.1229 556.288 61.5892 555.996 62.0016C555.707 62.414 555.311 62.7387 554.81 62.9757C554.308 63.2096 553.734 63.3265 553.088 63.3265ZM558.175 63.1973V62.1632L561.374 58.8485C561.716 58.4885 561.998 58.173 562.219 57.9022C562.444 57.6283 562.612 57.3682 562.722 57.122C562.833 56.8758 562.888 56.6142 562.888 56.3372C562.888 56.0233 562.815 55.7524 562.667 55.5247C562.519 55.2939 562.318 55.1169 562.062 54.9938C561.807 54.8676 561.519 54.8045 561.199 54.8045C560.86 54.8045 560.565 54.8738 560.312 55.0123C560.06 55.1507 559.866 55.3462 559.731 55.5985C559.595 55.8509 559.528 56.1464 559.528 56.4849H558.166C558.166 55.9094 558.298 55.4062 558.563 54.9753C558.828 54.5444 559.191 54.2105 559.652 53.9735C560.114 53.7335 560.639 53.6135 561.227 53.6135C561.821 53.6135 562.344 53.7319 562.796 53.9689C563.252 54.2028 563.607 54.5229 563.863 54.9292C564.118 55.3323 564.246 55.7878 564.246 56.2956C564.246 56.6465 564.18 56.9896 564.047 57.3251C563.918 57.6606 563.692 58.0345 563.369 58.4469C563.045 58.8562 562.596 59.3533 562.021 59.938L560.142 61.9047V61.9739H564.398V63.1973H558.175ZM569.439 63.3265C568.805 63.3265 568.239 63.2173 567.74 62.9988C567.245 62.7802 566.853 62.4771 566.563 62.0893C566.277 61.6984 566.123 61.246 566.102 60.7321H567.551C567.57 61.0121 567.663 61.2553 567.833 61.4615C568.005 61.6646 568.23 61.8216 568.507 61.9324C568.784 62.0431 569.092 62.0985 569.43 62.0985C569.802 62.0985 570.132 62.0339 570.418 61.9047C570.707 61.7754 570.933 61.5953 571.097 61.3645C571.26 61.1306 571.341 60.8613 571.341 60.5566C571.341 60.2396 571.26 59.9611 571.097 59.7211C570.937 59.4779 570.701 59.2871 570.39 59.1486C570.083 59.0101 569.71 58.9409 569.273 58.9409H568.474V57.7775H569.273C569.624 57.7775 569.932 57.7144 570.196 57.5882C570.464 57.4621 570.673 57.2866 570.824 57.062C570.975 56.8342 571.05 56.568 571.05 56.2633C571.05 55.9709 570.984 55.717 570.852 55.5016C570.723 55.2831 570.538 55.1123 570.298 54.9892C570.061 54.8661 569.781 54.8045 569.458 54.8045C569.15 54.8045 568.862 54.8614 568.594 54.9753C568.33 55.0861 568.114 55.2462 567.948 55.4554C567.782 55.6616 567.693 55.9094 567.68 56.1987H566.3C566.315 55.6878 566.466 55.2385 566.752 54.8507C567.042 54.4629 567.423 54.1597 567.897 53.9412C568.371 53.7227 568.898 53.6135 569.476 53.6135C570.083 53.6135 570.606 53.7319 571.046 53.9689C571.489 54.2028 571.831 54.5152 572.071 54.9061C572.314 55.2969 572.434 55.7247 572.431 56.1895C572.434 56.7188 572.286 57.1681 571.988 57.5375C571.692 57.9068 571.298 58.1545 570.806 58.2807V58.3546C571.434 58.45 571.92 58.6993 572.265 59.1025C572.612 59.5056 572.785 60.0057 572.782 60.6028C572.785 61.1229 572.64 61.5892 572.348 62.0016C572.058 62.414 571.663 62.7387 571.161 62.9757C570.66 63.2096 570.086 63.3265 569.439 63.3265ZM574.527 63.1973V62.1632L577.726 58.8485C578.067 58.4885 578.349 58.173 578.571 57.9022C578.795 57.6283 578.963 57.3682 579.074 57.122C579.185 56.8758 579.24 56.6142 579.24 56.3372C579.24 56.0233 579.166 55.7524 579.018 55.5247C578.871 55.2939 578.669 55.1169 578.414 54.9938C578.158 54.8676 577.871 54.8045 577.55 54.8045C577.212 54.8045 576.916 54.8738 576.664 55.0123C576.412 55.1507 576.218 55.3462 576.082 55.5985C575.947 55.8509 575.879 56.1464 575.879 56.4849H574.517C574.517 55.9094 574.65 55.4062 574.914 54.9753C575.179 54.5444 575.542 54.2105 576.004 53.9735C576.466 53.7335 576.99 53.6135 577.578 53.6135C578.172 53.6135 578.695 53.7319 579.148 53.9689C579.603 54.2028 579.959 54.5229 580.214 54.9292C580.47 55.3323 580.597 55.7878 580.597 56.2956C580.597 56.6465 580.531 56.9896 580.399 57.3251C580.27 57.6606 580.043 58.0345 579.72 58.4469C579.397 58.8562 578.948 59.3533 578.372 59.938L576.493 61.9047V61.9739H580.75V63.1973H574.527ZM584.314 61.9047L584.244 62.4078C584.198 62.7772 584.12 63.1619 584.009 63.562C583.901 63.9651 583.789 64.3391 583.672 64.6838C583.558 65.0285 583.464 65.3024 583.39 65.5055H582.412C582.452 65.3147 582.507 65.0562 582.578 64.7299C582.649 64.4068 582.718 64.0452 582.786 63.6451C582.853 63.245 582.904 62.8372 582.938 62.4217L582.984 61.9047H584.314ZM589.662 63.1973V53.7427H595.525V54.9707H591.088V57.8514H595.105V59.0748H591.088V63.1973H589.662ZM599.206 63.3542C598.757 63.3542 598.351 63.2711 597.988 63.1049C597.624 62.9357 597.337 62.691 597.124 62.3709C596.915 62.0508 596.81 61.6584 596.81 61.1937C596.81 60.7936 596.887 60.4643 597.041 60.2058C597.195 59.9473 597.403 59.7426 597.664 59.5918C597.926 59.441 598.218 59.3271 598.542 59.2502C598.865 59.1732 599.194 59.1148 599.529 59.0748C599.954 59.0255 600.299 58.9855 600.564 58.9547C600.828 58.9209 601.021 58.867 601.141 58.7931C601.261 58.7193 601.321 58.5993 601.321 58.4331V58.4007C601.321 57.9976 601.207 57.6852 600.979 57.4636C600.754 57.242 600.419 57.1312 599.973 57.1312C599.508 57.1312 599.142 57.2343 598.874 57.4405C598.609 57.6436 598.426 57.8699 598.325 58.1191L597.027 57.8237C597.181 57.3928 597.406 57.045 597.701 56.7804C598 56.5126 598.343 56.3187 598.731 56.1987C599.119 56.0756 599.526 56.014 599.954 56.014C600.237 56.014 600.537 56.0479 600.854 56.1156C601.174 56.1802 601.473 56.3002 601.75 56.4757C602.03 56.6511 602.259 56.9019 602.438 57.2282C602.616 57.5513 602.706 57.9714 602.706 58.4885V63.1973H601.358V62.2278H601.302C601.213 62.4063 601.079 62.5817 600.901 62.7541C600.722 62.9264 600.493 63.0695 600.213 63.1834C599.933 63.2973 599.597 63.3542 599.206 63.3542ZM599.506 62.2463C599.888 62.2463 600.214 62.1709 600.485 62.0201C600.759 61.8693 600.967 61.6723 601.108 61.4292C601.253 61.1829 601.325 60.9198 601.325 60.6397V59.7257C601.276 59.7749 601.181 59.8211 601.039 59.8642C600.901 59.9042 600.742 59.9396 600.564 59.9703C600.385 59.998 600.211 60.0242 600.042 60.0488C599.873 60.0704 599.731 60.0888 599.617 60.1042C599.349 60.1381 599.105 60.195 598.883 60.275C598.665 60.3551 598.489 60.4705 598.357 60.6213C598.228 60.769 598.163 60.966 598.163 61.2122C598.163 61.5538 598.289 61.8123 598.542 61.9877C598.794 62.1601 599.116 62.2463 599.506 62.2463ZM605.634 56.1064L607.199 58.867L608.777 56.1064H610.287L608.076 59.6518L610.305 63.1973H608.796L607.199 60.5474L605.606 63.1973H604.092L606.298 59.6518L604.119 56.1064H605.634ZM612.614 63.285C612.361 63.285 612.144 63.1957 611.963 63.0172C611.781 62.8356 611.69 62.6171 611.69 62.3617C611.69 62.1093 611.781 61.8939 611.963 61.7154C612.144 61.5338 612.361 61.443 612.614 61.443C612.866 61.443 613.083 61.5338 613.265 61.7154C613.446 61.8939 613.537 62.1093 613.537 62.3617C613.537 62.531 613.494 62.6864 613.408 62.8279C613.325 62.9664 613.214 63.0772 613.075 63.1603C612.937 63.2434 612.783 63.285 612.614 63.285ZM619.076 58.47C619.076 57.3128 619.228 56.2479 619.533 55.2754C619.837 54.3029 620.282 53.4057 620.867 52.584H622.132C621.904 52.8887 621.692 53.2626 621.495 53.7058C621.298 54.149 621.125 54.6352 620.978 55.1646C620.83 55.6909 620.714 56.2372 620.631 56.8034C620.548 57.3667 620.507 57.9222 620.507 58.47C620.507 59.2025 620.579 59.9442 620.724 60.6951C620.868 61.4461 621.064 62.1432 621.31 62.7864C621.556 63.4296 621.83 63.9544 622.132 64.3606H620.867C620.282 63.5389 619.837 62.6417 619.533 61.6692C619.228 60.6967 619.076 59.6303 619.076 58.47ZM626.86 63.3542C626.131 63.3511 625.508 63.1588 624.991 62.7772C624.473 62.3955 624.078 61.84 623.804 61.1106C623.53 60.3812 623.393 59.5025 623.393 58.4746C623.393 57.4498 623.53 56.5742 623.804 55.8478C624.081 55.1215 624.478 54.5675 624.995 54.1859C625.515 53.8043 626.137 53.6135 626.86 53.6135C627.583 53.6135 628.204 53.8058 628.721 54.1905C629.238 54.5721 629.633 55.1261 629.907 55.8525C630.184 56.5757 630.323 57.4498 630.323 58.4746C630.323 59.5056 630.186 60.3858 629.912 61.1152C629.638 61.8416 629.242 62.3971 628.725 62.7818C628.208 63.1634 627.586 63.3542 626.86 63.3542ZM626.86 62.1216C627.5 62.1216 628 61.8092 628.361 61.1845C628.724 60.5597 628.905 59.6564 628.905 58.4746C628.905 57.6898 628.822 57.0266 628.656 56.4849C628.493 55.9402 628.257 55.5278 627.95 55.2477C627.645 54.9645 627.282 54.823 626.86 54.823C626.223 54.823 625.723 55.1369 625.36 55.7647C624.997 56.3926 624.814 57.2959 624.81 58.4746C624.81 59.2625 624.892 59.9288 625.055 60.4735C625.221 61.0152 625.457 61.4261 625.761 61.7061C626.066 61.9831 626.432 62.1216 626.86 62.1216ZM631.96 63.1973V62.1632L635.159 58.8485C635.501 58.4885 635.783 58.173 636.004 57.9022C636.229 57.6283 636.397 57.3682 636.507 57.122C636.618 56.8758 636.674 56.6142 636.674 56.3372C636.674 56.0233 636.6 55.7524 636.452 55.5247C636.304 55.2939 636.103 55.1169 635.847 54.9938C635.592 54.8676 635.304 54.8045 634.984 54.8045C634.645 54.8045 634.35 54.8738 634.098 55.0123C633.845 55.1507 633.651 55.3462 633.516 55.5985C633.381 55.8509 633.313 56.1464 633.313 56.4849H631.951C631.951 55.9094 632.083 55.4062 632.348 54.9753C632.613 54.5444 632.976 54.2105 633.438 53.9735C633.899 53.7335 634.424 53.6135 635.012 53.6135C635.606 53.6135 636.129 53.7319 636.581 53.9689C637.037 54.2028 637.392 54.5229 637.648 54.9292C637.903 55.3323 638.031 55.7878 638.031 56.2956C638.031 56.6465 637.965 56.9896 637.832 57.3251C637.703 57.6606 637.477 58.0345 637.154 58.4469C636.831 58.8562 636.381 59.3533 635.806 59.938L633.927 61.9047V61.9739H638.183V63.1973H631.96ZM643.52 53.7427V63.1973H642.089V55.1738H642.033L639.771 56.6511V55.2846L642.13 53.7427H643.52ZM648.75 58.47C648.75 59.6303 648.598 60.6967 648.293 61.6692C647.989 62.6417 647.544 63.5389 646.959 64.3606H645.694C645.922 64.0559 646.134 63.682 646.331 63.2388C646.528 62.7956 646.701 62.3109 646.848 61.7846C646.996 61.2553 647.112 60.7074 647.195 60.1412C647.278 59.5749 647.319 59.0178 647.319 58.47C647.319 57.7406 647.247 57.0004 647.102 56.2495C646.958 55.4985 646.762 54.8014 646.516 54.1582C646.27 53.515 645.996 52.9902 645.694 52.584H646.959C647.544 53.4057 647.989 54.3029 648.293 55.2754C648.598 56.2479 648.75 57.3128 648.75 58.47ZM657.552 63.3265C656.973 63.3265 656.453 63.2157 655.991 62.9941C655.533 62.7695 655.166 62.4617 654.893 62.0708C654.619 61.68 654.472 61.2337 654.454 60.7321H655.839C655.873 61.1383 656.053 61.4722 656.379 61.7338C656.705 61.9954 657.096 62.1262 657.552 62.1262C657.915 62.1262 658.236 62.0431 658.517 61.877C658.8 61.7077 659.021 61.4753 659.181 61.1799C659.344 60.8844 659.426 60.5474 659.426 60.1689C659.426 59.7842 659.343 59.441 659.177 59.1394C659.01 58.8378 658.781 58.6008 658.489 58.4284C658.2 58.2561 657.867 58.1684 657.492 58.1653C657.205 58.1653 656.918 58.2145 656.628 58.313C656.339 58.4115 656.105 58.5408 655.927 58.7008L654.62 58.5069L655.151 53.7427H660.349V54.9661H656.338L656.037 57.6113H656.093C656.278 57.4328 656.522 57.2836 656.827 57.1635C657.135 57.0435 657.464 56.9835 657.815 56.9835C658.39 56.9835 658.903 57.1204 659.352 57.3944C659.805 57.6683 660.16 58.0422 660.419 58.5162C660.68 58.987 660.809 59.5287 660.806 60.1412C660.809 60.7536 660.671 61.2999 660.391 61.78C660.114 62.2601 659.729 62.6387 659.237 62.9157C658.747 63.1896 658.186 63.3265 657.552 63.3265ZM665.793 63.3265C665.372 63.3204 664.956 63.2434 664.547 63.0957C664.141 62.948 663.771 62.7018 663.439 62.3571C663.106 62.0124 662.84 61.5492 662.64 60.9675C662.443 60.3858 662.345 59.6595 662.345 58.7885C662.345 57.9637 662.426 57.2312 662.589 56.5911C662.756 55.9509 662.994 55.4108 663.305 54.9707C663.616 54.5275 663.991 54.1905 664.431 53.9597C664.871 53.7289 665.365 53.6135 665.913 53.6135C666.476 53.6135 666.977 53.7243 667.414 53.9458C667.851 54.1674 668.205 54.4737 668.475 54.8645C668.749 55.2554 668.923 55.7001 668.997 56.1987H667.589C667.494 55.8047 667.304 55.4831 667.021 55.2338C666.738 54.9846 666.369 54.8599 665.913 54.8599C665.221 54.8599 664.681 55.1615 664.293 55.7647C663.908 56.368 663.714 57.2066 663.711 58.2807H663.78C663.944 58.013 664.144 57.7852 664.381 57.5975C664.621 57.4067 664.888 57.2605 665.184 57.1589C665.482 57.0543 665.796 57.002 666.126 57.002C666.673 57.002 667.169 57.1358 667.612 57.4036C668.058 57.6683 668.414 58.0345 668.679 58.5023C668.943 58.9701 669.076 59.5056 669.076 60.1088C669.076 60.7121 668.939 61.2583 668.665 61.7477C668.394 62.237 668.012 62.6248 667.52 62.911C667.027 63.1942 666.452 63.3327 665.793 63.3265ZM665.789 62.1262C666.152 62.1262 666.476 62.037 666.763 61.8585C667.049 61.68 667.275 61.4399 667.441 61.1383C667.608 60.8367 667.691 60.4997 667.691 60.1273C667.691 59.7641 667.609 59.4333 667.446 59.1348C667.286 58.8362 667.064 58.5993 666.781 58.4238C666.501 58.2484 666.181 58.1607 665.821 58.1607C665.547 58.1607 665.293 58.213 665.059 58.3176C664.828 58.4223 664.625 58.5669 664.45 58.7516C664.274 58.9363 664.136 59.1486 664.034 59.3887C663.936 59.6257 663.887 59.8765 663.887 60.1412C663.887 60.4951 663.968 60.8229 664.131 61.1245C664.297 61.4261 664.524 61.6692 664.81 61.8539C665.099 62.0355 665.425 62.1262 665.789 62.1262ZM671.076 63.1973L675.203 55.0353V54.9661H670.429V53.7427H676.68V55.0076L672.567 63.1973H671.076ZM681.872 53.7427V63.1973H680.441V55.1738H680.386L678.124 56.6511V55.2846L680.483 53.7427H681.872ZM684.231 61.3507V60.1966L688.317 53.7427H689.226V55.4416H688.649L685.727 60.0673V60.1412H691.327V61.3507H684.231ZM688.714 63.1973V60.9998L688.723 60.4735V53.7427H690.076V63.1973H688.714ZM696.396 53.7427V63.1973H694.965V55.1738H694.909L692.647 56.6511V55.2846L695.006 53.7427H696.396ZM702.245 63.3265C701.611 63.3265 701.045 63.2173 700.546 62.9988C700.051 62.7802 699.658 62.4771 699.369 62.0893C699.083 61.6984 698.929 61.246 698.907 60.7321H700.357C700.375 61.0121 700.469 61.2553 700.638 61.4615C700.811 61.6646 701.035 61.8216 701.312 61.9324C701.589 62.0431 701.897 62.0985 702.236 62.0985C702.608 62.0985 702.937 62.0339 703.224 61.9047C703.513 61.7754 703.739 61.5953 703.902 61.3645C704.065 61.1306 704.147 60.8613 704.147 60.5566C704.147 60.2396 704.065 59.9611 703.902 59.7211C703.742 59.4779 703.507 59.2871 703.196 59.1486C702.888 59.0101 702.516 58.9409 702.079 58.9409H701.28V57.7775H702.079C702.43 57.7775 702.737 57.7144 703.002 57.5882C703.27 57.4621 703.479 57.2866 703.63 57.062C703.781 56.8342 703.856 56.568 703.856 56.2633C703.856 55.9709 703.79 55.717 703.658 55.5016C703.528 55.2831 703.344 55.1123 703.104 54.9892C702.867 54.8661 702.587 54.8045 702.263 54.8045C701.956 54.8045 701.668 54.8614 701.4 54.9753C701.135 55.0861 700.92 55.2462 700.754 55.4554C700.588 55.6616 700.498 55.9094 700.486 56.1987H699.106C699.121 55.6878 699.272 55.2385 699.558 54.8507C699.847 54.4629 700.229 54.1597 700.703 53.9412C701.177 53.7227 701.703 53.6135 702.282 53.6135C702.888 53.6135 703.411 53.7319 703.851 53.9689C704.295 54.2028 704.636 54.5152 704.876 54.9061C705.119 55.2969 705.239 55.7247 705.236 56.1895C705.239 56.7188 705.092 57.1681 704.793 57.5375C704.498 57.9068 704.104 58.1545 703.611 58.2807V58.3546C704.239 58.45 704.726 58.6993 705.07 59.1025C705.418 59.5056 705.59 60.0057 705.587 60.6028C705.59 61.1229 705.446 61.5892 705.153 62.0016C704.864 62.414 704.469 62.7387 703.967 62.9757C703.465 63.2096 702.891 63.3265 702.245 63.3265Z" fill="black"/>
<path d="M34.777 42.1973V31.8373H36.842V35.9533H40.412V31.8373H42.484V42.1973H40.412V37.8503H36.842V42.1973H34.777ZM47.3089 42.3443C46.4549 42.3443 45.7572 42.2089 45.2159 41.9383C44.6745 41.6676 44.2755 41.2383 44.0189 40.6503C43.7622 40.0623 43.6339 39.2923 43.6339 38.3403C43.6339 37.4723 43.7552 36.7466 43.9979 36.1633C44.2452 35.5799 44.5999 35.1436 45.0619 34.8543C45.5285 34.5649 46.0885 34.4203 46.7419 34.4203C47.3672 34.4203 47.8922 34.5673 48.3169 34.8613C48.7462 35.1506 49.0705 35.5893 49.2899 36.1773C49.5139 36.7653 49.6259 37.5049 49.6259 38.3963V38.9983H45.1249V37.7453H48.0089L47.7149 37.8713C47.7149 37.3066 47.6775 36.8726 47.6029 36.5693C47.5282 36.2659 47.4162 36.0583 47.2669 35.9463C47.1222 35.8296 46.9449 35.7713 46.7349 35.7713C46.5202 35.7713 46.3359 35.8296 46.1819 35.9463C46.0279 36.0583 45.9089 36.2659 45.8249 36.5693C45.7455 36.8726 45.7059 37.3066 45.7059 37.8713V38.7673C45.7059 39.2573 45.7642 39.6446 45.8809 39.9293C45.9975 40.2093 46.1912 40.4076 46.4619 40.5243C46.7325 40.6409 47.0989 40.6993 47.5609 40.6993C47.8315 40.6993 48.1045 40.6783 48.3799 40.6363C48.6599 40.5896 48.9515 40.5266 49.2549 40.4473V42.0853C48.9002 42.1739 48.5689 42.2393 48.2609 42.2813C47.9529 42.3233 47.6355 42.3443 47.3089 42.3443ZM52.3711 42.3373C51.7364 42.3373 51.2207 42.1413 50.8241 41.7493C50.4274 41.3526 50.2291 40.8159 50.2291 40.1393C50.2291 39.4113 50.4507 38.8419 50.8941 38.4313C51.3374 38.0206 52.0584 37.7779 53.0571 37.7033L54.2821 37.5983L54.5621 38.7883L53.2881 38.8933C52.9334 38.9213 52.6674 39.0216 52.4901 39.1943C52.3127 39.3669 52.2241 39.6049 52.2241 39.9083C52.2241 40.2163 52.3011 40.4449 52.4551 40.5943C52.6091 40.7436 52.8167 40.8183 53.0781 40.8183C53.2321 40.8183 53.3931 40.7833 53.5611 40.7133C53.7291 40.6433 53.8831 40.5173 54.0231 40.3353V37.3603C54.0231 37.0289 53.9741 36.7699 53.8761 36.5833C53.7827 36.3919 53.6287 36.2566 53.4141 36.1773C53.1994 36.0979 52.9147 36.0583 52.5601 36.0583C52.2987 36.0583 52.0094 36.0816 51.6921 36.1283C51.3747 36.1703 51.0667 36.2379 50.7681 36.3313V34.6933C51.0901 34.6046 51.4471 34.5369 51.8391 34.4903C52.2311 34.4436 52.6021 34.4203 52.9521 34.4203C53.6474 34.4203 54.2214 34.5159 54.6741 34.7073C55.1267 34.8986 55.4604 35.2159 55.6751 35.6593C55.8944 36.1026 56.0041 36.6999 56.0041 37.4513V42.1973H54.3451L54.1911 41.3923H54.1001C53.9181 41.7283 53.6754 41.9709 53.3721 42.1203C53.0734 42.2649 52.7397 42.3373 52.3711 42.3373ZM59.6993 42.3443C59.2326 42.3443 58.7963 42.2159 58.3903 41.9593C57.9843 41.7026 57.6553 41.2943 57.4033 40.7343C57.156 40.1743 57.0323 39.4369 57.0323 38.5223C57.0323 37.6263 57.1676 36.8749 57.4383 36.2683C57.7136 35.6569 58.1336 35.1973 58.6983 34.8893C59.263 34.5813 59.984 34.4273 60.8613 34.4273C60.9313 34.4273 60.999 34.4296 61.0643 34.4343C61.1343 34.4343 61.1996 34.4389 61.2603 34.4483V30.8853H63.3043V42.1973H61.5753L61.4353 41.3853H61.3373C61.1926 41.6699 60.9803 41.9009 60.7003 42.0783C60.425 42.2556 60.0913 42.3443 59.6993 42.3443ZM60.3573 40.6223C60.53 40.6223 60.698 40.5849 60.8613 40.5103C61.0246 40.4356 61.1576 40.3283 61.2603 40.1883V36.0513C61.181 36.0326 61.0876 36.0209 60.9803 36.0163C60.873 36.0069 60.7796 36.0023 60.7003 36.0023C60.187 36.0023 59.795 36.1679 59.5243 36.4993C59.2536 36.8306 59.1183 37.4443 59.1183 38.3403C59.1183 38.9656 59.172 39.4416 59.2793 39.7683C59.3866 40.0949 59.5336 40.3189 59.7203 40.4403C59.907 40.5616 60.1193 40.6223 60.3573 40.6223ZM71.6449 42.3303C70.8189 42.3303 70.0932 42.1529 69.4679 41.7983C68.8426 41.4389 68.3526 40.8696 67.9979 40.0903C67.6479 39.3063 67.4729 38.2819 67.4729 37.0173C67.4729 35.7526 67.6479 34.7306 67.9979 33.9513C68.3526 33.1673 68.8426 32.5979 69.4679 32.2433C70.0932 31.8839 70.8189 31.7043 71.6449 31.7043C72.4756 31.7043 73.2036 31.8839 73.8289 32.2433C74.4542 32.5979 74.9419 33.1673 75.2919 33.9513C75.6466 34.7306 75.8239 35.7526 75.8239 37.0173C75.8239 38.2819 75.6466 39.3063 75.2919 40.0903C74.9419 40.8696 74.4542 41.4389 73.8289 41.7983C73.2036 42.1529 72.4756 42.3303 71.6449 42.3303ZM71.6449 40.6013C72.0696 40.6013 72.4336 40.4916 72.7369 40.2723C73.0449 40.0529 73.2806 39.6866 73.4439 39.1733C73.6072 38.6553 73.6889 37.9529 73.6889 37.0663C73.6889 36.1423 73.6072 35.4166 73.4439 34.8893C73.2806 34.3619 73.0449 33.9886 72.7369 33.7693C72.4336 33.5453 72.0696 33.4333 71.6449 33.4333C71.2202 33.4333 70.8562 33.5429 70.5529 33.7623C70.2496 33.9769 70.0162 34.3433 69.8529 34.8613C69.6896 35.3793 69.6079 36.0816 69.6079 36.9683C69.6079 37.8923 69.6896 38.6179 69.8529 39.1453C70.0162 39.6726 70.2496 40.0483 70.5529 40.2723C70.8562 40.4916 71.2202 40.6013 71.6449 40.6013ZM77.4491 42.1973V33.7623C77.4491 33.1229 77.5611 32.5793 77.7851 32.1313C78.0138 31.6786 78.3544 31.3356 78.8071 31.1023C79.2644 30.8643 79.8361 30.7453 80.5221 30.7453C80.6761 30.7453 80.8371 30.7523 81.0051 30.7663C81.1778 30.7756 81.3388 30.7943 81.4881 30.8223V32.4603C81.3668 32.4416 81.2524 32.4276 81.1451 32.4183C81.0424 32.4089 80.9328 32.4043 80.8161 32.4043C80.3401 32.4043 79.9948 32.5023 79.7801 32.6983C79.5654 32.8943 79.4581 33.2093 79.4581 33.6433V42.1973H77.4491ZM76.3431 36.1493V34.5393H81.2151V36.1493H76.3431ZM81.7284 42.1973V33.7623C81.7284 33.1229 81.8404 32.5793 82.0644 32.1313C82.2931 31.6786 82.6337 31.3356 83.0864 31.1023C83.5437 30.8643 84.1154 30.7453 84.8014 30.7453C84.9554 30.7453 85.1164 30.7523 85.2844 30.7663C85.4571 30.7756 85.6181 30.7943 85.7674 30.8223V32.4603C85.6461 32.4416 85.5317 32.4276 85.4244 32.4183C85.3217 32.4089 85.2121 32.4043 85.0954 32.4043C84.6194 32.4043 84.2741 32.5023 84.0594 32.6983C83.8447 32.8943 83.7374 33.2093 83.7374 33.6433V42.1973H81.7284ZM80.6224 36.1493V34.5393H85.4944V36.1493H80.6224ZM86.393 42.1973V34.5393H88.437V42.1973H86.393ZM87.415 33.4123C86.981 33.4123 86.659 33.3096 86.449 33.1043C86.239 32.8989 86.134 32.6189 86.134 32.2643C86.134 31.9003 86.239 31.6179 86.449 31.4173C86.659 31.2119 86.981 31.1093 87.415 31.1093C87.8537 31.1093 88.1757 31.2119 88.381 31.4173C88.591 31.6179 88.696 31.9003 88.696 32.2643C88.696 32.6189 88.591 32.8989 88.381 33.1043C88.1757 33.3096 87.8537 33.4123 87.415 33.4123ZM92.884 42.3443C92.1653 42.3443 91.554 42.2066 91.05 41.9313C90.546 41.6559 90.161 41.2266 89.895 40.6433C89.6337 40.0599 89.503 39.3039 89.503 38.3753C89.503 37.4279 89.65 36.6649 89.944 36.0863C90.2427 35.5029 90.665 35.0806 91.211 34.8193C91.757 34.5533 92.4057 34.4203 93.157 34.4203C93.395 34.4203 93.626 34.4319 93.85 34.4553C94.0787 34.4739 94.3003 34.5066 94.515 34.5533V36.2263C94.3517 36.1889 94.1837 36.1633 94.011 36.1493C93.8383 36.1353 93.6797 36.1283 93.535 36.1283C93.0963 36.1283 92.737 36.1983 92.457 36.3383C92.177 36.4783 91.9693 36.7093 91.834 37.0313C91.6987 37.3533 91.631 37.7896 91.631 38.3403C91.631 38.9283 91.694 39.3903 91.82 39.7263C91.946 40.0576 92.135 40.2909 92.387 40.4263C92.639 40.5616 92.954 40.6293 93.332 40.6293C93.5093 40.6293 93.6937 40.6106 93.885 40.5733C94.081 40.5359 94.291 40.4799 94.515 40.4053V42.0853C94.2537 42.1739 93.983 42.2393 93.703 42.2813C93.423 42.3233 93.15 42.3443 92.884 42.3443ZM98.7288 42.3443C97.8748 42.3443 97.1771 42.2089 96.6358 41.9383C96.0944 41.6676 95.6954 41.2383 95.4388 40.6503C95.1821 40.0623 95.0538 39.2923 95.0538 38.3403C95.0538 37.4723 95.1751 36.7466 95.4178 36.1633C95.6651 35.5799 96.0198 35.1436 96.4818 34.8543C96.9484 34.5649 97.5084 34.4203 98.1618 34.4203C98.7871 34.4203 99.3121 34.5673 99.7368 34.8613C100.166 35.1506 100.49 35.5893 100.71 36.1773C100.934 36.7653 101.046 37.5049 101.046 38.3963V38.9983H96.5448V37.7453H99.4288L99.1348 37.8713C99.1348 37.3066 99.0974 36.8726 99.0228 36.5693C98.9481 36.2659 98.8361 36.0583 98.6868 35.9463C98.5421 35.8296 98.3648 35.7713 98.1548 35.7713C97.9401 35.7713 97.7558 35.8296 97.6018 35.9463C97.4478 36.0583 97.3288 36.2659 97.2448 36.5693C97.1654 36.8726 97.1258 37.3066 97.1258 37.8713V38.7673C97.1258 39.2573 97.1841 39.6446 97.3008 39.9293C97.4174 40.2093 97.6111 40.4076 97.8818 40.5243C98.1524 40.6409 98.5188 40.6993 98.9808 40.6993C99.2514 40.6993 99.5244 40.6783 99.7998 40.6363C100.08 40.5896 100.371 40.5266 100.675 40.4473V42.0853C100.32 42.1739 99.9888 42.2393 99.6808 42.2813C99.3728 42.3233 99.0554 42.3443 98.7288 42.3443ZM103.063 42.3163C102.671 42.3163 102.349 42.1996 102.097 41.9663C101.845 41.7283 101.719 41.4063 101.719 41.0003C101.719 40.5896 101.842 40.2676 102.09 40.0343C102.337 39.7963 102.661 39.6773 103.063 39.6773C103.464 39.6773 103.786 39.7986 104.029 40.0413C104.276 40.2793 104.4 40.5989 104.4 41.0003C104.4 41.3969 104.274 41.7166 104.022 41.9593C103.77 42.1973 103.45 42.3163 103.063 42.3163ZM103.063 37.0593C102.671 37.0593 102.349 36.9426 102.097 36.7093C101.845 36.4713 101.719 36.1493 101.719 35.7433C101.719 35.3326 101.842 35.0106 102.09 34.7773C102.337 34.5393 102.661 34.4203 103.063 34.4203C103.464 34.4203 103.786 34.5416 104.029 34.7843C104.276 35.0223 104.4 35.3419 104.4 35.7433C104.4 36.1399 104.274 36.4596 104.022 36.7023C103.77 36.9403 103.45 37.0593 103.063 37.0593Z" fill="black"/>
</svg>
