<svg width="544" height="188" viewBox="0 0 544 188" fill="none" xmlns="http://www.w3.org/2000/svg">
<path d="M114.554 0L64 98.7526V186H529V68.0722L475.442 20.134L386.347 68.0722L335.792 0L297.251 52.732L250.2 20.134L203.65 41.2268L114.554 0Z" fill="#E01B22" fill-opacity="0.48"/>
<path d="M51.9677 44L0 114.613V177H478V92.6753L422.945 58.3969L331.358 92.6753L279.391 44L239.772 81.7062L191.406 58.3969L143.554 73.4794L51.9677 44Z" fill="#1E3278" fill-opacity="0.65"/>
<path d="M129.5 91L79 142.5V188H543.5V126.5L490 101.5L401 126.5L350.5 91L312 118.5L265 101.5L218.5 112.5L129.5 91Z" fill="#E01B22"/>
</svg>
