<svg width="30" height="30" viewBox="0 0 30 30" fill="none" xmlns="http://www.w3.org/2000/svg">
<g clip-path="url(#clip0_361_4040)">
<path d="M27.3571 5.625V6.125H27.8571H29.1964C29.2988 6.125 29.3821 6.16178 29.4347 6.20783C29.4866 6.25323 29.5 6.29745 29.5 6.32812V8.67188C29.5 8.70255 29.4866 8.74677 29.4347 8.79217C29.3821 8.83822 29.2988 8.875 29.1964 8.875H27.8571H27.3571V9.375V13.125V13.625H27.8571H29.1964C29.2988 13.625 29.3821 13.6618 29.4347 13.7078C29.4866 13.7532 29.5 13.7974 29.5 13.8281V16.1719C29.5 16.2026 29.4866 16.2468 29.4347 16.2922C29.3821 16.3382 29.2988 16.375 29.1964 16.375H27.8571H27.3571V16.875V20.625V21.125H27.8571H29.1964C29.2988 21.125 29.3821 21.1618 29.4347 21.2078C29.4866 21.2532 29.5 21.2974 29.5 21.3281V23.6719C29.5 23.7026 29.4866 23.7468 29.4347 23.7922C29.3821 23.8382 29.2988 23.875 29.1964 23.875H27.8571H27.3571V24.375V27.1875C27.3571 28.4035 26.2061 29.5 24.6429 29.5H3.21429C1.65107 29.5 0.5 28.4035 0.5 27.1875V2.8125C0.5 1.59653 1.65107 0.5 3.21429 0.5H24.6429C26.2061 0.5 27.3571 1.59653 27.3571 2.8125V5.625ZM24.6429 27.6875H25.1429V27.1875V2.8125V2.3125H24.6429H3.21429H2.71429V2.8125V27.1875V27.6875H3.21429H24.6429ZM17.7143 11.25C17.7143 12.9816 16.0811 14.5 13.9286 14.5C11.7761 14.5 10.1429 12.9816 10.1429 11.25C10.1429 9.51841 11.7761 8 13.9286 8C16.0811 8 17.7143 9.51841 17.7143 11.25ZM19.9286 22H7.92857C7.61098 22 7.34384 21.903 7.16738 21.7706C6.99116 21.6383 6.92857 21.4934 6.92857 21.375V20.25C6.92857 19.5111 7.32708 18.8037 8.04693 18.2638C8.76688 17.7238 9.78419 17.375 10.9286 17.375C11.1527 17.375 11.3207 17.4237 11.6049 17.506C11.693 17.5315 11.7922 17.5602 11.9077 17.5917C12.3737 17.7189 12.9773 17.8438 13.9286 17.8438C14.8538 17.8438 15.4667 17.7187 15.9412 17.5926C16.0639 17.56 16.1691 17.5304 16.2621 17.5041C16.5499 17.4231 16.7204 17.375 16.9286 17.375C18.073 17.375 19.0903 17.7238 19.8102 18.2638C20.5301 18.8037 20.9286 19.5111 20.9286 20.25V21.375C20.9286 21.4934 20.866 21.6383 20.6898 21.7706C20.5133 21.903 20.2462 22 19.9286 22Z" fill="#202F72" stroke="#202F72"/>
</g>
<defs>
<clipPath id="clip0_361_4040">
<rect width="30" height="30" fill="white"/>
</clipPath>
</defs>
</svg>
