<svg width="40" height="40" viewBox="0 0 40 40" fill="none" xmlns="http://www.w3.org/2000/svg">
<path d="M19.9997 3.33301C10.833 3.33301 3.33301 10.833 3.33301 19.9997C3.33301 29.1663 10.833 36.6663 19.9997 36.6663C29.1663 36.6663 36.6663 29.1663 36.6663 19.9997C36.6663 10.833 29.1663 3.33301 19.9997 3.33301ZM24.9997 21.6663H18.9997L21.1663 23.833C21.833 24.4997 21.833 25.4997 21.1663 26.1663C20.4997 26.833 19.4997 26.833 18.833 26.1663L13.833 21.1663C13.1663 20.4997 13.1663 19.4997 13.833 18.833L18.833 13.833C19.4997 13.1663 20.4997 13.1663 21.1663 13.833C21.833 14.4997 21.833 15.4997 21.1663 16.1663L18.9997 18.333H24.9997C25.9997 18.333 26.6663 18.9997 26.6663 19.9997C26.6663 20.9997 25.9997 21.6663 24.9997 21.6663Z" fill="#202F72"/>
</svg>
