<svg width="26" height="26" viewBox="0 0 26 26" fill="none" xmlns="http://www.w3.org/2000/svg">
<path d="M21.9156 7.84331L12.9998 13L4.08398 7.84331C4.26705 7.52645 4.5281 7.26168 4.84232 7.07414L11.9165 2.98997C12.5889 2.61076 13.4107 2.61076 14.0831 2.98997L21.1573 7.07414C21.4715 7.26168 21.7326 7.52645 21.9156 7.84331Z" fill="#999999"/>
<path d="M13.0003 12.9999V23.2916C12.6588 23.2911 12.3217 23.2133 12.0145 23.0641L4.87533 18.9366C4.20613 18.5495 3.79345 17.8355 3.79199 17.0624V8.93743C3.79379 8.55363 3.89454 8.17677 4.08449 7.84326L13.0003 12.9999Z" fill="#666666"/>
<path d="M22.2083 8.93743V17.0624C22.2069 17.8355 21.7942 18.5495 21.125 18.9366L13.9533 23.0749C13.6551 23.2156 13.3297 23.2895 13 23.2916V12.9999L21.9158 7.84326C22.1058 8.17677 22.2065 8.55363 22.2083 8.93743Z" fill="#858484"/>
</svg>
