<svg width="30" height="30" viewBox="0 0 30 30" fill="none" xmlns="http://www.w3.org/2000/svg">
<path d="M17.8574 14.08L18.1125 14.2314L18.3677 14.08C18.863 13.7861 19.4275 13.629 20.0035 13.625C20.5045 13.6215 20.9996 13.734 21.4501 13.9535C21.9005 14.1731 22.294 14.4939 22.6 14.8907C22.9059 15.2876 23.1159 15.7498 23.2136 16.2413C23.3113 16.7328 23.294 17.2402 23.1631 17.7239C23.0322 18.2075 22.7913 18.6544 22.4591 19.0296C22.1268 19.4047 21.7124 19.6979 21.2481 19.8864C20.7838 20.0748 20.2822 20.1533 19.7825 20.1158C19.2828 20.0782 18.7986 19.9257 18.3676 19.67L18.1125 19.5186L17.8574 19.67C17.3639 19.9628 16.8017 20.1197 16.228 20.1249C15.6542 20.13 15.0893 19.9831 14.5907 19.6992C14.0921 19.4153 13.6775 19.0044 13.3892 18.5084C13.1008 18.0123 12.9489 17.4488 12.9489 16.875C12.9489 16.3012 13.1008 15.7377 13.3892 15.2416C13.6775 14.7456 14.0921 14.3347 14.5907 14.0508C15.0893 13.7669 15.6542 13.62 16.228 13.6251C16.8017 13.6303 17.3639 13.7872 17.8574 14.08ZM16.505 18.6232L16.9625 18.5842V18.125V18.025V17.9366L16.9322 17.8536C16.6897 17.1893 16.6897 16.4607 16.9322 15.7964L17.1563 15.1824L16.505 15.1268C16.4131 15.119 16.3207 15.1184 16.2287 15.1251C15.7723 15.1307 15.3357 15.3144 15.0126 15.6376C14.6844 15.9658 14.5 16.4109 14.5 16.875C14.5 17.3391 14.6844 17.7842 15.0126 18.1124C15.3357 18.4356 15.7723 18.6193 16.2287 18.6249C16.3207 18.6316 16.4131 18.631 16.505 18.6232ZM18.2836 16.5336L18.774 16.6311L18.2836 16.5336C18.2161 16.8731 18.2508 17.2249 18.3832 17.5447C18.5157 17.8645 18.74 18.1378 19.0278 18.3301C19.3155 18.5224 19.6539 18.625 20 18.625C20.4641 18.625 20.9092 18.4406 21.2374 18.1124C21.5656 17.7842 21.75 17.3391 21.75 16.875C21.75 16.5289 21.6474 16.1905 21.4551 15.9028C21.2628 15.615 20.9895 15.3907 20.6697 15.2582C20.3499 15.1258 19.9981 15.0911 19.6586 15.1586C19.3191 15.2261 19.0073 15.3928 18.7626 15.6376C18.5178 15.8823 18.3512 16.1941 18.2836 16.5336ZM6.25 6.125H23.75C24.612 6.125 25.4386 6.46741 26.0481 7.0769C26.6576 7.6864 27 8.51305 27 9.375V20.625C27 21.487 26.6576 22.3136 26.0481 22.9231C25.4386 23.5326 24.612 23.875 23.75 23.875H6.25C5.38805 23.875 4.5614 23.5326 3.9519 22.9231C3.34241 22.3136 3 21.487 3 20.625V9.375C3 8.51305 3.34241 7.6864 3.9519 7.0769C4.5614 6.46741 5.38805 6.125 6.25 6.125ZM24.9874 21.8624C25.3156 21.5342 25.5 21.0891 25.5 20.625V9.375C25.5 8.91087 25.3156 8.46575 24.9874 8.13756C24.6592 7.80937 24.2141 7.625 23.75 7.625H6.25C5.78587 7.625 5.34075 7.80937 5.01256 8.13756C4.68437 8.46575 4.5 8.91087 4.5 9.375V20.625C4.5 21.0891 4.68437 21.5342 5.01256 21.8624C5.34075 22.1906 5.78587 22.375 6.25 22.375H23.75C24.2141 22.375 24.6592 22.1906 24.9874 21.8624Z" fill="#202F72" stroke="#202F72"/>
</svg>
