<svg width="30" height="30" viewBox="0 0 30 30" fill="none" xmlns="http://www.w3.org/2000/svg">
<path d="M15.2647 14.3036L15.2734 14.3076L15.2822 14.3113C15.3769 14.3509 15.4645 14.4058 15.5414 14.4737C15.6067 14.5418 15.6586 14.6217 15.6943 14.7092L16.1572 14.5201L15.6943 14.7092C15.7317 14.8006 15.7506 14.8984 15.75 14.9971H15.75L15.75 15.0029C15.7506 15.1016 15.7317 15.1994 15.6943 15.2908L16.1572 15.4799L15.6943 15.2908C15.6573 15.3816 15.6028 15.4642 15.5339 15.5339C15.4642 15.6028 15.3816 15.6573 15.2908 15.6943L15.4799 16.1572L15.2908 15.6943C15.1994 15.7317 15.1016 15.7506 15.0029 15.75L14.995 15.75L14.9871 15.7502C14.9012 15.7524 14.816 15.7344 14.7383 15.6978L14.7223 15.6902L14.7058 15.6838C14.6157 15.6489 14.5333 15.5969 14.4629 15.5308C14.3956 15.4617 14.3422 15.3802 14.3057 15.2908L13.8428 15.4799L14.3057 15.2908C14.2683 15.1994 14.2494 15.1016 14.25 15.0029L14.25 14.9951L14.2498 14.9873C14.2473 14.886 14.2652 14.7854 14.3026 14.6913L13.8379 14.5067L14.3026 14.6913C14.3369 14.6049 14.3869 14.5258 14.45 14.4578L14.571 14.361L14.7168 14.2881L14.8648 14.2388C15.0013 14.2233 15.1396 14.2456 15.2647 14.3036ZM24.328 10.7226C24.3643 10.7619 24.3968 10.8045 24.425 10.8499V10.9193L24.4511 10.9969C24.4739 11.0649 24.4903 11.1348 24.5 11.2058V11.2059V11.2062V11.2065V11.2068V11.2071V11.2074V11.2077V11.208V11.2083V11.2086V11.2089V11.2092V11.2095V11.2098V11.2101V11.2103V11.2106V11.2109V11.2112V11.2115V11.2118V11.212V11.2123V11.2126V11.2129V11.2132V11.2134V11.2137V11.214V11.2142V11.2145V11.2148V11.215V11.2153V11.2156V11.2158V11.2161V11.2163V11.2166V11.2169V11.2171V11.2174V11.2176V11.2179V11.2181V11.2184V11.2186V11.2189V11.2191V11.2193V11.2196V11.2198V11.2201V11.2203V11.2205V11.2208V11.221V11.2212V11.2215V11.2217V11.2219V11.2222V11.2224V11.2226V11.2228V11.223V11.2233V11.2235V11.2237V11.2239V11.2241V11.2244V11.2246V11.2248V11.225V11.2252V11.2254V11.2256V11.2258V11.226V11.2262V11.2264V11.2267V11.2269V11.2271V11.2273V11.2275V11.2276V11.2278V11.228V11.2282V11.2284V11.2286V11.2288V11.229V11.2292V11.2294V11.2296V11.2297V11.2299V11.2301V11.2303V11.2305V11.2306V11.2308V11.231V11.2312V11.2313V11.2315V11.2317V11.2319V11.232V11.2322V11.2324V11.2325V11.2327V11.2329V11.233V11.2332V11.2334V11.2335V11.2337V11.2338V11.234V11.2341V11.2343V11.2345V11.2346V11.2348V11.2349V11.2351V11.2352V11.2354V11.2355V11.2357V11.2358V11.2359V11.2361V11.2362V11.2364V11.2365V11.2367V11.2368V11.2369V11.2371V11.2372V11.2373V11.2375V11.2376V11.2377V11.2379V11.238V11.2381V11.2383V11.2384V11.2385V11.2386V11.2388V11.2389V11.239V11.2391V11.2392V11.2394V11.2395V11.2396V11.2397V11.2398V11.24V11.2401V11.2402V11.2403V11.2404V11.2405V11.2406V11.2407V11.2408V11.241V11.2411V11.2412V11.2413V11.2414V11.2415V11.2416V11.2417V11.2418V11.2419V11.242V11.2421V11.2422V11.2423V11.2424V11.2425V11.2426V11.2427V11.2427V11.2428V11.2429V11.243V11.2431V11.2432V11.2433V11.2434V11.2435V11.2435V11.2436V11.2437V11.2438V11.2439V11.244V11.2441V11.2441V11.2442V11.2443V11.2444V11.2444V11.2445V11.2446V11.2447V11.2448V11.2448V11.2449V11.245V11.245V11.2451V11.2452V11.2453V11.2453V11.2454V11.2455V11.2455V11.2456V11.2457V11.2457V11.2458V11.2459V11.2459V11.246V11.246V11.2461V11.2462V11.2462V11.2463V11.2463V11.2464V11.2465V11.2465V11.2466V11.2466V11.2467V11.2467V11.2468V11.2468V11.2469V11.247V11.247V11.2471V11.2471V11.2472V11.2472V11.2473V11.2473V11.2473V11.2474V11.2474V11.2475V11.2475V11.2476V11.2476V11.2477V11.2477V11.2478V11.2478V11.2478V11.2479V11.2479V11.248V11.248V11.248V11.2481V11.2481V11.2482V11.2482V11.2482V11.2483V11.2483V11.2483V11.2484V11.2484V11.2484V11.2485V11.2485V11.2485V11.2486V11.2486V11.2486V11.2487V11.2487V11.2487V11.2487V11.2488V11.2488V11.2488V11.2489V11.2489V11.2489V11.2489V11.249V11.249V11.249V11.249V11.2491V11.2491V11.2491V11.2491V11.2492V11.2492V11.2492V11.2492V11.2492V11.2493V11.2493V11.2493V11.2493V11.2493V11.2494V11.2494V11.2494V11.2494V11.2494V11.2494V11.2495V11.2495V11.2495V11.2495V11.2495V11.2495V11.2496V11.2496V11.2496V11.2496V11.2496V11.2497V11.2497V11.2497V11.2497V11.2498V11.2498V11.2498V11.2498V11.2498V11.2498V11.2499V11.2499V11.2499V11.2499V11.2499V11.2499V11.25V11.25V11.25V23.75C24.5 24.612 24.1576 25.4386 23.5481 26.0481C22.9386 26.6576 22.112 27 21.25 27H8.75C7.88805 27 7.0614 26.6576 6.4519 26.0481C5.84241 25.4386 5.5 24.612 5.5 23.75V6.25C5.5 5.38805 5.84241 4.5614 6.4519 3.9519C7.0614 3.34241 7.88805 3 8.75 3H16.2717C16.343 3.01741 16.4119 3.04375 16.4767 3.07842L16.5872 3.1375H16.7125H16.7126C16.758 3.16567 16.8006 3.19816 16.8399 3.23455L24.328 10.7226ZM17.8536 6.40895L17 5.55539V6.7625V8.75C17 9.21413 17.1844 9.65925 17.5126 9.98744C17.8408 10.3156 18.2859 10.5 18.75 10.5H20.7375H21.9446L21.0911 9.64645L17.8536 6.40895ZM15.5 5V4.5H15H8.75C8.28587 4.5 7.84075 4.68437 7.51256 5.01256C7.18437 5.34075 7 5.78587 7 6.25V23.75C7 24.2141 7.18437 24.6592 7.51256 24.9874C7.84075 25.3156 8.28587 25.5 8.75 25.5H21.25C21.7141 25.5 22.1592 25.3156 22.4874 24.9874C22.8156 24.6592 23 24.2141 23 23.75V12.5V12H22.5H18.75C17.888 12 17.0614 11.6576 16.4519 11.0481C15.8424 10.4386 15.5 9.61195 15.5 8.75V5ZM14.4697 18.2197C14.6103 18.079 14.8011 18 15 18C15.1989 18 15.3897 18.079 15.5303 18.2197C15.671 18.3603 15.75 18.5511 15.75 18.75V21.25C15.75 21.4489 15.671 21.6397 15.5303 21.7803C15.3897 21.921 15.1989 22 15 22C14.8011 22 14.6103 21.921 14.4697 21.7803C14.329 21.6397 14.25 21.4489 14.25 21.25V18.75C14.25 18.5511 14.329 18.3603 14.4697 18.2197Z" fill="#202F72" stroke="#202F72"/>
</svg>
