<svg width="24" height="24" viewBox="0 0 24 24" fill="none" xmlns="http://www.w3.org/2000/svg">
<g clip-path="url(#clip0_358_3964)">
<path d="M16.775 3.9002L20.5333 8.12832C20.6917 8.30645 20.6917 8.59707 20.5333 8.7752L11.4333 19.0127L7.56667 19.4955C7.05 19.5611 6.6125 19.0689 6.67083 18.4877L7.1 14.1377L16.2 3.9002C16.3583 3.72207 16.6167 3.72207 16.775 3.9002ZM23.525 2.82676L21.4917 0.539258C20.8583 -0.173242 19.8292 -0.173242 19.1917 0.539258L17.7167 2.19863C17.5583 2.37676 17.5583 2.66738 17.7167 2.84551L21.475 7.07363C21.6333 7.25176 21.8917 7.25176 22.05 7.07363L23.525 5.41426C24.1583 4.69707 24.1583 3.53926 23.525 2.82676ZM16 16.2283V21.0002H2.66667V6.0002H12.2417C12.375 6.0002 12.5 5.93926 12.5958 5.83613L14.2625 3.96113C14.5792 3.60488 14.3542 3.0002 13.9083 3.0002H2C0.895833 3.0002 0 4.00801 0 5.2502V21.7502C0 22.9924 0.895833 24.0002 2 24.0002H16.6667C17.7708 24.0002 18.6667 22.9924 18.6667 21.7502V14.3533C18.6667 13.8518 18.1292 13.6033 17.8125 13.9549L16.1458 15.8299C16.0542 15.9377 16 16.0783 16 16.2283Z" fill="#E01B22"/>
</g>
<defs>
<clipPath id="clip0_358_3964">
<rect width="24" height="24" fill="white"/>
</clipPath>
</defs>
</svg>
