<svg width="30" height="30" viewBox="0 0 30 30" fill="none" xmlns="http://www.w3.org/2000/svg">
<path d="M26.25 15V5.625C26.25 4.58947 25.4106 3.75 24.375 3.75H5.625C4.58947 3.75 3.75 4.58947 3.75 5.625V24.375C3.75 25.4106 4.58947 26.25 5.625 26.25H15" stroke="#202F72" stroke-width="2" stroke-linecap="round" stroke-linejoin="round"/>
<path d="M24.4072 20.625V26.875" stroke="#202F72" stroke-width="2" stroke-linecap="round" stroke-linejoin="round"/>
<path d="M27.5 23.7188H21.25" stroke="#202F72" stroke-width="2" stroke-linecap="round" stroke-linejoin="round"/>
<path d="M15 14.375C16.7259 14.375 18.125 12.9759 18.125 11.25C18.125 9.52411 16.7259 8.125 15 8.125C13.2741 8.125 11.875 9.52411 11.875 11.25C11.875 12.9759 13.2741 14.375 15 14.375Z" stroke="#202F72" stroke-width="2" stroke-linecap="round" stroke-linejoin="round"/>
<path d="M20.625 19.375C20.625 16.6136 18.1066 14.375 15 14.375C11.8934 14.375 9.375 16.6136 9.375 19.375" stroke="#202F72" stroke-width="2" stroke-linecap="round" stroke-linejoin="round"/>
</svg>
